<svg xmlns="http://www.w3.org/2000/svg" width="26" height="26" fill="#fff" xmlns:v="https://vecta.io/nano"><path d="M22.837 7.583a2.16 2.16 0 0 0-.778-.784c-.323-.189-.689-.293-1.064-.299H7.128L6.5 4.052c-.063-.236-.205-.444-.402-.59s-.437-.22-.681-.212H3.25c-.287 0-.563.114-.766.317s-.317.479-.317.766.114.563.317.766.479.317.766.317h1.343l2.99 11.115c.063.236.205.444.402.59s.437.22.681.212h9.75a1.09 1.09 0 0 0 .566-.162 1.08 1.08 0 0 0 .398-.434l3.553-7.107a2.17 2.17 0 0 0 .209-1.036c-.017-.357-.122-.705-.306-1.011zM8.125 22.75c.897 0 1.625-.727 1.625-1.625S9.022 19.5 8.125 19.5 6.5 20.228 6.5 21.125s.728 1.625 1.625 1.625zm10.833 0c.897 0 1.625-.727 1.625-1.625s-.728-1.625-1.625-1.625-1.625.727-1.625 1.625.727 1.625 1.625 1.625z"/></svg>