<svg xmlns="http://www.w3.org/2000/svg" width="17" height="19" fill="#fff" xmlns:v="https://vecta.io/nano"><path d="M6.593 7.971c-.542 0-.969.475-.969 1.055s.437 1.055.969 1.055c.541 0 .968-.477.968-1.055.011-.581-.427-1.055-.968-1.055zm3.468 0c-.542 0-.969.475-.969 1.055s.437 1.055.969 1.055c.541 0 .968-.477.968-1.055s-.427-1.055-.968-1.055zM14.678 0H1.947A1.95 1.95 0 0 0 0 1.957v12.844c0 1.083.874 1.957 1.947 1.957H12.72l-.505-1.759 1.217 1.131 1.149 1.064L16.625 19V1.957A1.95 1.95 0 0 0 14.678 0zM11.01 12.407l-.626-.771c1.244-.352 1.719-1.13 1.719-1.13-.39.256-.76.438-1.093.562a6.68 6.68 0 0 1-3.838.398 7.98 7.98 0 0 1-1.396-.41 5.4 5.4 0 0 1-.693-.321c-.029-.021-.057-.029-.085-.048-.015-.007-.028-.017-.039-.03l-.266-.16s.456.76 1.663 1.121l-.637.789c-2.099-.067-2.896-1.444-2.896-1.444 0-3.059 1.368-5.538 1.368-5.538 1.368-1.027 2.669-.998 2.669-.998l.095.114c-1.71.495-2.499 1.245-2.499 1.245l.561-.275c1.016-.446 1.823-.57 2.156-.599.057-.009.105-.019.162-.019 1.647-.222 3.322.091 4.778.893 0 0-.751-.712-2.366-1.206l.133-.152s1.302-.029 2.669.998c0 0 1.368 2.479 1.368 5.538 0-.001-.807 1.376-2.907 1.443z"/></svg>