<svg xmlns="http://www.w3.org/2000/svg" width="60" height="76" fill="none" xmlns:v="https://vecta.io/nano"><g clip-path="url(#A)"><g fill="#9ca"><path d="M21.539 75.814c-.044-.013-.088-.036-.133-.039a6.49 6.49 0 0 1-2.069-.479c-.494-.202-.924-.509-1.341-.834-.351-.279-.663-.604-.925-.968-.037-.043-.075-.085-.116-.124-.134.354-.322.654-.548.932-.299.37-.681.633-1.106.822-.507.224-1.05.33-1.598.404-.58.078-1.163.09-1.748.089-1.306-.002-2.612.003-3.918.003-.234 0-.463-.036-.67-.151-.355-.197-.454-.536-.487-.907-.004-.04 0-.08 0-.12v-9.627c0-.236.038-.465.146-.672.183-.349.509-.466.879-.483l.649-.002 4.375.014c.73.012 1.454.144 2.125.44.883.387 1.482 1.043 1.7 2.023l.938-1.071c.337-.32.73-.58 1.117-.88l-.43-.173-1.216-.554c-.339-.19-.646-.442-.957-.681-.958-.737-1.693-1.664-2.285-2.71-.118-.208-.137-.207-.361-.168-.326.055-.652.114-.986.079-.133-.014-.271.01-.406.017-.032.002-.064.014-.095.01-.472-.064-.947-.11-1.408-.236l-.686-.213c-.795-.234-1.483-.666-2.139-1.152-.798-.592-1.442-1.331-2.029-2.125a5.36 5.36 0 0 1-.729-1.344c-.131-.358-.22-.733-.302-1.106-.114-.515-.177-1.039-.151-1.567a10.45 10.45 0 0 1 .111-1.019c.016-.112.009-.166-.098-.226-.23-.129-.37-.336-.476-.579-.403-.923-.75-1.866-1.006-2.84l-.386-1.653c-.054-.258-.081-.52-.082-.783l.054-1.578c.042-.41.154-.814.258-1.215.038-.147.005-.22-.109-.298-.87-.602-1.546-1.381-2.067-2.295-.111-.194-.204-.398-.275-.61L.2 37.971c-.138-.595-.115-1.206-.107-1.812.007-.736.145-1.464.407-2.151.139-.365.284-.729.511-1.052a.98.98 0 0 0 .07-.125.22.22 0 0 0 .008-.061c-.199-.068-.387-.157-.529-.33-.157-.191-.198-.414-.226-.644a1.55 1.55 0 0 1-.002-.192l.002-16.491a1.89 1.89 0 0 1 .059-.496c.086-.314.288-.521.615-.608.216-.057.439-.086.662-.085l56.726-.001a2.17 2.17 0 0 1 .708.101c.286.099.498.29.558.601.035.172.053.346.055.521v16.419c-.001.159-.015.318-.04.475-.057.372-.287.593-.639.699-.023.007-.044.018-.068.028.006.025.006.053.02.07.223.269.331.601.478.91.109.228.177.479.243.725.139.525.271 1.051.247 1.602-.002.042.029.085.044.128v.816l-.047.198-.103.78c-.062.312-.129.627-.237.926-.168.466-.392.909-.668 1.32-.266.389-.565.754-.896 1.089-.274.282-.587.515-.906.742-.058.041-.112.075-.091.172l.19.936c.1.509.174 1.021.156 1.542a6.46 6.46 0 0 1-.048.667l-.235 1.485c-.104.474-.253.939-.398 1.404l-.43 1.242-.326.797c-.099.292-.247.537-.522.689-.096.053-.102.126-.094.22l.086 1.141c.007.254-.051.509-.045.762a2.77 2.77 0 0 1-.101.804c-.11.4-.188.815-.353 1.191-.283.646-.697 1.219-1.147 1.763-.197.24-.413.464-.631.685l-.747.706c-.524.42-1.089.782-1.707 1.053l-.446.174-.684.216c-.517.173-1.061.19-1.592.284-.024 0-.048-.002-.072-.008-.135-.009-.271-.032-.405-.024-.349.024-.691-.028-1.032-.088-.128-.022-.202 0-.27.12l-.523.832c-.509.7-1.065 1.359-1.749 1.899-.364.288-.732.566-1.149.775-.111.056-.216.126-.322.189l-.006.054c.525.125.943.439 1.379.772.037-.328.171-.554.417-.707.211-.131.447-.162.69-.162h7.931a3.16 3.16 0 0 1 .192.004c.379.03.693.189.844.542a1.59 1.59 0 0 1 .12.798 4.02 4.02 0 0 0-.024.406l-.007 1.753a2.34 2.34 0 0 1-.052.449c-.109.513-.582.73-1.032.698-.397-.028-.79-.107-1.185-.168-.307-.047-.324-.035-.324.279l-.003 6.048a2.04 2.04 0 0 1-.072.519.73.73 0 0 1-.49.52c-.205.066-.419.101-.634.104l-2.452.007a2.1 2.1 0 0 1-.662-.09c-.295-.095-.498-.291-.581-.586a1.96 1.96 0 0 1-.063-.52l-.003-6.024v-.192c.002-.098-.043-.118-.137-.102l-1.089.163c-.166.024-.337.064-.498.042-.296-.04-.577-.135-.748-.416-.072-.12-.16-.099-.247-.008l.561.528c.614.698.841 1.546.91 2.449.04.538-.043 1.064-.175 1.588-.287 1.136-.95 1.987-1.923 2.617-.499.324-1.055.489-1.63.608l-.594.141h-.817c-.041-.019-.08-.046-.123-.056l-1.006-.216c-.887-.211-1.587-.701-2.111-1.44l-.459-.672-.152.168-.673.713c-.987.903-2.163 1.363-3.492 1.463-.053.004-.105.026-.157.04h-.144c-.043-.016-.088-.03-.133-.04l-1.04-.16c-1.085-.219-1.988-.77-2.768-1.54-.407-.402-.733-.864-1.022-1.356a1.06 1.06 0 0 0-.096-.12l-.531.792c-.527.757-1.219 1.329-2.028 1.76-.723.386-1.508.563-2.321.626-.053.004-.105.026-.158.039l-.098-.002zM58.76 31.808V15.244c0-.36 0-.36-.348-.36H1.635 1.49c-.183.004-.183.004-.187.184v.072 16.397l.011.266 3.122-1.413c.016.037.03.075.041.113l.098.469c.042.204.042.202-.158.288-.935.399-1.719.996-2.302 1.829-1.034 1.479-1.265 3.124-.892 4.856.315 1.463 1.161 2.579 2.408 3.395.168.109.342.207.522.294.107.052.122.11.069.205-.011.021-.02.043-.028.066-.492 1.333-.651 2.698-.394 4.104.252 1.377.705 2.689 1.261 3.968.021.048.052.092.091.161l1.343-1.59a.94.94 0 0 1-.084.347c-.417.995-.697 2.024-.764 3.105-.066 1.074.087 2.11.597 3.069.472.887 1.118 1.64 1.886 2.281 1.783 1.49 3.802 1.975 6.062 1.368.133-.036.172-.006.229.11l.606 1.143c1.14 1.785 2.699 2.997 4.813 3.413.374.074.761.096 1.143.117.23.013.464-.036.695-.028.448.015.897-.022 1.337-.11 1.094-.209 2.138-.552 3.096-1.13 1.704-1.028 2.791-2.533 3.402-4.403.194-.593.327-1.205.399-1.825.003-.029.014-.08.027-.082.053-.007.107.077.162-.003.016.029.043.057.048.088.085.611.209 1.213.399 1.8.542 1.678 1.475 3.079 2.927 4.11.873.62 1.842 1.027 2.875 1.289 1.136.288 2.288.405 3.454.25 1.551-.207 2.886-.87 4.006-1.96.784-.763 1.39-1.651 1.832-2.65.077-.174.076-.166.259-.124l.892.185c1.376.184 2.677-.052 3.903-.708 1.028-.552 1.849-1.338 2.559-2.252.678-.872 1.074-1.855 1.154-2.951.107-1.466-.197-2.86-.808-4.192-.031-.068-.054-.139-.081-.208l.041-.026c.484.484.883 1.047 1.358 1.553.022-.026.043-.054.06-.084.606-1.416 1.118-2.857 1.34-4.391.109-.753.084-1.5-.039-2.245-.086-.537-.233-1.063-.436-1.568-.041-.102-.038-.166.072-.206.044-.018.087-.039.129-.064 1.247-.689 2.149-1.68 2.629-3.03.377-1.059.417-2.147.208-3.241-.344-1.804-1.357-3.109-2.995-3.934-.107-.054-.224-.089-.33-.144-.042-.022-.102-.082-.096-.112.05-.237.078-.48.171-.719l3.126 1.418zM14.442 69.582l.309-.181a2.35 2.35 0 0 0 1.035-1.278c.144-.401.151-.814.128-1.231-.054-1.013-.567-1.693-1.528-2.017-.488-.161-.998-.244-1.511-.246l-4.781-.019c-.288 0-.252-.002-.252.266v9.526c0 .275-.023.254.264.253l4.085-.013a17.65 17.65 0 0 0 1.533-.084c.521-.051 1.022-.189 1.474-.469.407-.248.713-.633.863-1.085.132-.384.159-.782.141-1.183a2.42 2.42 0 0 0-.509-1.397c-.312-.403-.718-.675-1.25-.844zm12.001.335c.002-1.458-.255-2.373-.798-3.235a4.78 4.78 0 0 0-4.995-2.15c-1.136.23-2.054.837-2.768 1.738-.907 1.145-1.258 2.46-1.12 3.909.133 1.392.721 2.559 1.771 3.481 1.66 1.458 4.04 1.555 5.795.213 1.425-1.088 2.072-2.576 2.114-3.956zm10.226-.408l-.024-.412c-.093-1.335-.607-2.483-1.597-3.385-1.18-1.074-2.578-1.486-4.154-1.184-1.192.228-2.137.877-2.866 1.832-.793 1.04-1.126 2.227-1.068 3.529.062 1.406.588 2.61 1.595 3.592 1.707 1.664 4.275 1.794 6.122.291 1.344-1.094 1.953-2.552 1.992-4.262v-.001zm5.315-1.951l1.856-.795c.12-.051.147-.103.111-.232a2.64 2.64 0 0 0-1.727-1.854c-.509-.185-1.042-.25-1.582-.24-1.268.024-2.244.572-2.912 1.649-.489.789-.625 1.661-.499 2.563.151 1.083.769 1.827 1.799 2.201.305.111.637.146.957.216.313.067.633.108.933.209.321.108.435.327.417.651-.018.334-.191.579-.5.657-.517.13-.939.112-1.375-.414-.092-.111-.17-.232-.232-.362-.103-.218-.066-.213-.312-.107l-1.694.737-.2.096a4.23 4.23 0 0 0 .471.896c.407.598.954 1.004 1.653 1.203.68.194 1.373.25 2.067.125 1.337-.241 2.302-.97 2.791-2.257.31-.816.319-1.665.074-2.498a2.38 2.38 0 0 0-1.624-1.665c-.197-.065-.399-.118-.603-.159l-1.063-.189a1.62 1.62 0 0 1-.623-.237c-.312-.21-.276-.833.033-.997.517-.275 1.368-.2 1.67.523l.115.281v-.001zm2.783-.201l2.453-.345c.174-.024.174-.024.179.139v.168 7.034.192c0 .072.035.101.103.101h.168 2.452c.361 0 .318.046.318-.32v-7.082c0-.235.003-.236.222-.206l2.188.296c.18.024.183.024.184-.16l.01-2.353c0-.208-.002-.21-.212-.21h-7.861c-.209 0-.211.003-.212.21l-.007 2.353.015.184v-.001zm-18.057-.748c.333-.509.636-.988 1.037-1.395s.863-.736 1.351-1.03c.494-.298 1.038-.451 1.593-.579.567-.13 1.135-.171 1.713-.088.564.081 1.114.211 1.645.419.536.209.998.539 1.449.886s.784.8 1.138 1.27c.313-.622.677-1.15 1.178-1.59-.129-.102-.271-.046-.399-.07l-1.937-.429c-.495-.154-.977-.345-1.442-.573a7.94 7.94 0 0 1-1.842-1.247c-.789-.724-1.466-1.536-1.948-2.501l-.211-.397-.183.382-.832 1.286c-.44.576-.926 1.098-1.504 1.534l-.43.305c-.553.416-1.167.72-1.805.978-.103.042-.211.072-.317.107l-.732.245c1.088.585 1.895 1.396 2.479 2.486v-.001z"/><path d="M60 11.715c-.04.109-.066.226-.123.326-.265.468-.898.6-1.383.285l-.932-.635-2.374-1.631-1.028-.707-.245-.154-.017.242-.002 1.824c0 .218-.039.43-.153.619-.192.319-.499.449-.85.453-1.001.011-2.003.01-3.005-.002-.178-.002-.356-.076-.53-.128-.063-.019-.106-.039-.176-.004-.202.103-.421.139-.649.139-2.164-.001-4.327.007-6.49-.009l-1.087-.002-3.317.011c-.514.002-.891-.205-1.121-.672l-.381-.72-.126.727c-.072.29-.26.496-.551.576-.184.052-.373.081-.565.085l-2.476.002c-.198 0-.397-.031-.595-.044-.072-.005-.144-.005-.216 0l-.547.044h-2.62c-.268 0-.521-.054-.74-.228-.157-.124-.251-.288-.328-.463l-.192-.465c-.037-.093-.095-.137-.199-.136H25.13c-.105 0-.156.044-.192.141l-.206.486c-.173.439-.515.629-.965.666-.056.005-.112.001-.168.001-2.18 0-4.359-.001-6.539-.002-.159-.004-.318-.023-.474-.058a.78.78 0 0 1-.519-.358l-.405-.707-.714-1.235-.007.174-.007 1.056c-.015.218-.058.448-.152.643-.181.374-.542.482-.925.485l-2.861.003c-.386-.116-.772-.003-1.158-.002l-2.644.002c-.192 0-.385-.002-.577 0-.505.007-.879-.199-1.106-.658l-.255-.489c-.04-.074-.088-.144-.137-.222l-.124.712c-.028.126-.087.242-.173.338s-.194.169-.316.212c-.18.065-.37.1-.562.102l-2.788.002c-.256-.002-.508-.037-.725-.2a.87.87 0 0 1-.341-.502c-.018-.074-.064-.14-.097-.21V1.104C.025 1.037.071.973.09.902.166.621.327.405.596.302.776.234.966.198 1.157.195h2.788c.184.001.366.033.538.096.264.1.455.293.518.583l.113.586L5.5.746c.208-.407.567-.549.99-.552h3.053c.224 0 .445.056.642.164.022.011.047.017.072.017s.05-.004.072-.014c.229-.117.482-.175.739-.171l4.495-.004c.568-.007 1.135.061 1.685.202.898.231 1.636.705 2.223 1.422.422.515.649 1.111.767 1.759.07.37.08.749.031 1.123-.117.842-.379 1.635-.928 2.305-.087.106-.085.177-.014.291l1.195 1.969c.03.048.072.09.119.144l.58-1.108 1.919-3.736 1.716-3.355.404-.735c.27-.485 1.047-.567 1.466-.168.119.112.202.267.28.415l.815 1.578 2.06 4.014 1.064 2.071c.032.052.067.103.105.152v-.331l.003-6.818c0-.175.022-.35.065-.52.072-.268.244-.475.51-.565a1.84 1.84 0 0 1 .562-.099h2.74c.175.003.349.03.517.081.294.09.491.291.565.595l.117.597.276-.53c.102-.17.204-.349.34-.49.2-.205.481-.253.753-.254h3.053a1.25 1.25 0 0 1 .64.168c.054.032.09.043.149.008.226-.135.475-.178.735-.178l6.274.004c.213 0 .428.036.639.074.093.02.19.004.272-.044.11-.061.23-.103.347-.151l.196-.074h.048c.034.017.067.043.104.048.219.033.402.137.583.261l4.094 2.807.345.218.014-.271.002-1.799c0-.216.042-.428.156-.618.198-.331.524-.444.875-.45H59c.366.005.691.14.88.485.054.1.077.218.115.327L60 11.715zm-39.315-.334l-.079-.149-.958-1.58-1.531-2.522c-.05-.082-.107-.142.007-.238.672-.567 1.052-1.303 1.181-2.161.136-.896-.045-1.723-.657-2.418-.687-.78-1.579-1.14-2.598-1.152l-4.974-.007c-.211 0-.213.002-.213.205v9.815c0 .216-.016.209.208.209h2.596c.362 0 .31.048.313-.323l.001-2.353c0-.194.003-.196.2-.197l.889-.004c.165-.007.256.044.337.195l1.344 2.491c.079.149.17.195.334.194l3.365-.004.234-.003zm38.385.179v-.219-9.963c0-.225-.002-.227-.217-.227H56.16h-.096c-.085-.006-.112.04-.109.117v.168 3.733l-.629-.425-5.269-3.611c-.067-.046-.127-.12-.234-.105v5.986 4.105c0 .285-.028.264.253.264h2.62a.77.77 0 0 1 .096 0c.12.015.158-.041.147-.152-.003-.056-.003-.112 0-.168V7.358l6.131 4.202zM9.66 1.152h-.24c-.937 0-1.875.006-2.811-.005a.33.33 0 0 0-.347.212L4.253 5.153l-.09.153c-.029-.061-.043-.128-.041-.196V1.463v-.168c.007-.098-.024-.154-.133-.144-.048.004-.096 0-.144 0-.849 0-1.698-.001-2.547 0-.333 0-.291-.041-.292.294v9.647.12c.005.164.005.168.177.168h1.779l1.01.002c.112.002.166-.032.153-.15a1.56 1.56 0 0 1 0-.168V7.392v-.25a.49.49 0 0 1 .157.192l2.063 3.847c.077.144.158.205.328.203l3.196-.005h.239l-.123-.237-2.849-5.168c-.091-.164-.079-.276.011-.432l2.38-4.139.134-.252zm25.526 4.147l-.054-.005V1.44v-.168c.006-.096-.043-.128-.131-.122-.048.003-.096 0-.144 0h-2.572c-.301 0-.27-.032-.27.268v9.695.168c-.002.072.035.1.102.098h.144 2.62.144c.068.002.106-.026.105-.098v-.192-3.945c.083.056.12.122.157.189l2.064 3.847c.076.144.155.206.327.205l3.196-.004h.237l-.131-.256-2.846-5.169a.34.34 0 0 1 .007-.389l2.391-4.16.125-.235c-.026-.009-.053-.016-.081-.02-1.017 0-2.034 0-3.051-.005-.12 0-.168.056-.216.147l-.819 1.548-1.304 2.457zm6.686.95v4.921c0 .209.002.212.206.212h6.418c.201 0 .202-.002.202-.216V9.318c0-.378 0-.378-.381-.378h-3.053c-.312 0-.274.035-.276-.286v-.768c0-.384 0-.384.376-.384h3.125c.207 0 .209-.003.209-.212V5.225c0-.168-.005-.173-.175-.174-.441-.002-.881 0-1.322 0h-2.019c-.188 0-.192-.003-.192-.178l-.002-1.104c-.002-.118.026-.184.16-.166.056.004.112.005.168.001h3.197c.183 0 .186-.004.187-.183V1.405c0-.276.026-.252-.264-.252h-6.298-.144c-.096-.007-.127.042-.122.13.003.056 0 .112 0 .168l.001 4.799zM26.063.974l-5.331 10.378c.031.016.037.022.043.022l2.933.009c.104 0 .135-.057.168-.134l.417-.995c.048-.12.113-.168.249-.167h3.053c.139 0 .197.053.244.172l.385.93c.058.154.139.198.301.196l2.644-.004h.242L26.063.974zM9.888 2.729l-.116.179-.907 1.579-.622 1.08c-.096.158-.106.29.005.434.009.014.016.028.023.042l1.328 2.413.256.444.033-.013V2.729zm31.013.006c-.024.025-.046.052-.066.079l-1.587 2.762c-.088.151-.082.266 0 .415l1.564 2.831c.016.029.044.052.088.1V2.734z"/></g><g fill="#001e0f"><path d="M58.76 31.808l-3.125-1.416c-.093.238-.12.482-.171.719-.006.03.053.09.096.112.106.055.223.089.33.144 1.638.825 2.651 2.13 2.995 3.934.209 1.095.168 2.183-.208 3.241-.481 1.35-1.382 2.341-2.629 3.03a.97.97 0 0 1-.129.064c-.111.04-.115.105-.072.206.204.505.35 1.031.436 1.568a7.3 7.3 0 0 1 .039 2.245c-.221 1.534-.734 2.977-1.34 4.391a.64.64 0 0 1-.06.084l-1.357-1.553-.041.026.081.208c.61 1.332.915 2.726.808 4.192-.08 1.097-.476 2.08-1.154 2.951-.711.914-1.531 1.7-2.559 2.252a6.3 6.3 0 0 1-3.903.708c-.3-.04-.596-.117-.892-.185-.183-.043-.182-.051-.259.124a8.42 8.42 0 0 1-1.832 2.65c-1.12 1.089-2.455 1.752-4.006 1.96-1.166.156-2.317.039-3.454-.25-1.034-.263-2.003-.669-2.876-1.289-1.452-1.031-2.385-2.432-2.927-4.11-.19-.588-.314-1.19-.399-1.8-.004-.031-.031-.059-.048-.088-.055.081-.109-.005-.162.003-.013.002-.024.053-.027.082a9.29 9.29 0 0 1-.399 1.825c-.611 1.87-1.698 3.375-3.402 4.403-.958.578-2.002.921-3.096 1.13-.44.088-.889.125-1.337.11-.231-.009-.464.041-.694.028l-1.143-.117c-2.114-.416-3.673-1.628-4.813-3.413-.231-.362-.415-.756-.606-1.143-.057-.116-.096-.144-.229-.11-2.26.606-4.279.122-6.062-1.368-.768-.642-1.414-1.395-1.886-2.281-.51-.96-.663-1.995-.597-3.069.066-1.082.347-2.11.764-3.106a.94.94 0 0 0 .084-.347l-1.343 1.59-.091-.161c-.556-1.28-1.01-2.591-1.261-3.968-.257-1.406-.098-2.771.394-4.104.007-.023.017-.045.028-.066.053-.095.038-.153-.069-.205a4.69 4.69 0 0 1-.522-.294c-1.247-.816-2.093-1.932-2.408-3.395-.373-1.732-.142-3.377.892-4.856.583-.833 1.367-1.43 2.302-1.829.199-.085.2-.083.158-.288l-.098-.469-.041-.113-3.122 1.413-.011-.266v-16.4-.072c.003-.18.003-.18.187-.184h.144 56.778c.348 0 .348 0 .348.36v16.561h-.001zm-6.017 8.811l-.341-.616c-.361-.667-.778-1.266-.972-1.383-.012.221-.173.247-.355.254a.8.8 0 0 0 .154.129c.302.2.58.428.817.702.108.126.202.263.303.395l.35.564.37.881c.111.29.162.602.304.885.028-.048.046-.093.034-.132l-.264-.868-.4-.812h0zm-7.556-17.473a.62.62 0 0 0 .775.109c.284-.179.359-.483.192-.776-.109-.159-.23-.305-.433-.34a.62.62 0 0 0-.641.317c-.139.252-.106.459.107.691zm-30.082.005c.293-.294.24-.712-.106-.926-.318-.197-.753-.05-.868.288-.132.28-.061.561.183.721.268.176.576.144.792-.083zm3.786 16.935c-.03.105-.077.209-.088.316-.037.349.272.691.533.808.412.184.822.016 1.008-.205s.302-.465.184-.761l-.044-.132a.82.82 0 0 0-.762-.588c-.36-.014-.716.228-.83.563zm22.411-.192c-.436-.606-1.245-.387-1.449.098-.044.133-.129.267-.126.4.015.687.653 1.032 1.18.846.556-.196.789-.908.395-1.344h0zM8.512 24.489c.083-.16.192-.312.244-.48.187-.63-.22-1.354-.851-1.533-.529-.15-.99-.033-1.37.373-.367.319-.413.745-.312 1.165.248 1.022 1.409 1.285 2.108.717.076-.062.121-.16.181-.241zm43.168-.144c.228.535.833.757 1.381.653.294-.056.56-.211.754-.439a1.3 1.3 0 0 0 .308-.815c.011-.336-.068-.668-.373-.888-.288-.3-.625-.474-1.061-.439-.97.077-1.497 1.172-1.009 1.928v.002zm3.563 10.315l-.163-.077c-.01.043-.034.089-.027.129.057.346.096.689.046 1.041-.08.581-.437.839-.968.78-.242-.027-.483-.102-.714-.186l-1.495-.578c-.478-.186-.974-.318-1.481-.362-.554-.048-1.073.113-1.543.417-.799.388-1.6 1.428-1.659 1.965l.337-.197c.434-.243.883-.451 1.374-.547.114-.023.243-.033.353-.003.315.085.621.083.922-.039.102-.042.162-.024.216.07.064.11.162.147.288.101a1.28 1.28 0 0 1 .136-.035c.224-.053.267-.038.399.15.072.104.148.186.295.118.12-.056.212-.016.275.107.088.173.212.289.43.281.115-.005.194.056.239.19.059.18.186.32.409.295.087-.01.105.029.127.102.03.104.406.349.475.296.164-.127.281-.14.382.058l.453-.002c.059-.006.12-.067.165-.117.07-.078.111-.062.167.015.134.187.135.18.345.118.132-.039.23-.103.283-.234.042-.106.113-.161.24-.154.072.004.148-.038.22-.065.12-.044.149-.156.189-.261.056-.144.084-.294.267-.367.166-.066.258-.381.212-.56a1.23 1.23 0 0 1-.04-.234.19.19 0 0 1 .045-.126c.209-.223.219-.432.011-.651-.086-.09-.122-.161-.008-.255.03-.024.046-.084.044-.127-.009-.193-.104-.323-.29-.36-.151-.031-.255-.114-.364-.212l-.588-.484v.001zm-43.514 1.162a2.4 2.4 0 0 0-1.543-.413c-.255.018-.507.066-.751.144l-1.489.523c-.457.168-.902.362-1.385.452-.395.073-.793-.11-.931-.462-.164-.417-.111-.847-.062-1.276l.015-.224-.199.101c-.158.12-.329.227-.472.364-.164.156-.321.3-.553.357-.175.043-.258.343-.141.482.071.084.05.142-.008.207-.032.035-.075.06-.107.096-.107.122-.105.447.03.522.156.087.139.189.098.319-.046.146-.084.292.02.434.074.1.111.226.256.268.048.014.082.093.11.148.038.078.062.164.096.245.065.153.188.256.347.252s.247.056.295.187c.068.187.24.195.389.238.13.038.174-.08.231-.166.036-.054.102-.086.134-.021.083.171.233.144.373.144.094.001.228.022.275-.029.111-.12.191-.213.326-.041.006.005.013.008.021.01s.016.001.023-.001c.178-.074.399-.081.478-.312.013-.038.079-.085.116-.082.238.02.363-.144.43-.313.057-.146.14-.202.261-.179.128.024.198-.028.266-.11.052-.06.099-.124.14-.192.056-.1.127-.125.239-.096.213.054.229.05.339-.147.061-.108.139-.149.253-.133a1.17 1.17 0 0 1 .233.05c.131.048.247.024.314-.092.075-.131.154-.098.259-.052.233.102.494.12.738.051.296-.087.553-.033.817.048a5.36 5.36 0 0 1 1.237.57c.053.033.113.057.2.101a3.67 3.67 0 0 0-1.106-1.57c-.186-.154-.408-.268-.613-.401zM50.68 49.685c-.163-.26-.392-.446-.651-.616a.43.43 0 0 0-.022.072.26.26 0 0 0 .005.072 3.76 3.76 0 0 1 .04 1.611c-.094.49-.343.89-.763 1.172-.337.226-.711.34-1.114.402-.442.07-.895.031-1.317-.116-.55-.188-1.001-.528-1.412-.926-.489-.474-.907-1.008-1.327-1.543-.385-.49-.776-.977-1.244-1.394-.325-.291-.681-.532-1.12-.616l-.776-.127c-.551-.111-1.136-.091-1.621-.453-.117-.088-.262.009-.269.159a.36.36 0 0 0 .049.205 2.35 2.35 0 0 0 .272.33c.117.119.168.24.12.41-.04.144-.048.297-.069.445-.02.014-.037.03-.052.048-.295.474-.466.994-.556 1.541-.013.081-.002.166-.002.303l.382-.492c.245-.303.534-.556.896-.705.284-.117.591-.133.85.053.238.171.444.389.661.588a.19.19 0 0 1 .053.105c.024.154.102.278.186.406.077.118.122.251.325.192-.196.225-.196.225-.041.442.009.013.021.024.029.038.065.107.131.184.262.07.048-.041.124-.025.108.059-.032.174.072.29.189.358.198.117.232.28.24.483.005.112.039.247.11.326.061.067.194.07.309.104-.07.12.045.201.109.296a.27.27 0 0 0 .366.125c-.175.216-.006.321.051.452.084.192.264.15.402.142-.008.103-.048.206-.015.273.046.094.141.168.224.239.076.065.16.039.247.004.063-.024.177-.034.144.077-.048.168.062.21.159.277s.188.14.318.036c.056-.045.151-.021.132.091-.015.09.044.103.103.132.133.066.256.035.379-.044.008.203.118.298.276.366.17.072.307.101.43-.091.065-.102.188-.048.242.074.026.06.072.127.126.159.149.085.206.064.337-.085.059-.068.102-.112.181-.004.158.218.337.211.517-.002.194.146.424.144.596-.018.066-.062.111-.086.172-.004.083.111.199.094.306.06.114-.036.257-.039.269-.222.004-.059.091-.114.15-.181.078.228.078.228.256.117a1.02 1.02 0 0 1 .101-.065c.139-.065.262-.132.178-.325-.013-.028.048-.088.074-.133.032.024.072.045.096.077.074.1.129.119.172.026.084-.181.326-.298.222-.565-.04-.102.072-.199.157-.15.12.07.182-.004.246-.07s.087-.153.034-.242a1.14 1.14 0 0 0-.078-.12c-.058-.074-.02-.141.026-.194.015-.017.084-.002.118.017.078.043.122.006.158-.053.072-.118.08-.24.01-.363-.027-.048-.068-.093-.081-.145-.015-.058.002-.113.088-.096.05.01.116.035.151.014.168-.102.178-.413.031-.552-.037-.035-.084-.091-.079-.131.011-.08.081-.048.135-.037.124.027.171-.054.208-.151.04-.104.015-.186-.076-.251-.185-.132-.196-.168-.157-.364.018-.09.037-.154.153-.122.028.008.092-.026.101-.053.019-.07.011-.145-.023-.209s-.092-.112-.161-.135a.63.63 0 0 0-.165-.031c-.178-.007-.279-.099-.374-.249-.136-.214-.312-.401-.472-.599zm-29.48-.897l-.094-.507c-.014-.067-.01-.136.012-.2s.06-.122.111-.167a1.66 1.66 0 0 0 .278-.326c.091-.148.073-.275-.015-.351-.115-.099-.212-.015-.305.04a2.15 2.15 0 0 1-.852.302l-.734.107c-.094.014-.187.048-.281.048-.396.004-.752.132-1.084.336-.371.228-.69.521-.968.853l-1.492 1.813c-.394.463-.817.898-1.337 1.23a2.82 2.82 0 0 1-1.27.459 2.97 2.97 0 0 1-1.452-.228 1.86 1.86 0 0 1-1.04-1.068c-.2-.504-.17-1.032-.124-1.557.014-.157.051-.312.077-.468a2.01 2.01 0 0 0-.677.591c-.132.158-.287.303-.391.477-.136.23-.293.384-.577.389-.134.003-.235.155-.231.292.003.082.031.146.131.114.078-.024.134 0 .143.076a.82.82 0 0 1-.008.284c-.012.045-.09.075-.14.108-.104.069-.123.146-.078.293.032.104.095.138.199.12.04-.007.084.008.126.012-.017.048-.022.108-.054.142-.149.158-.168.279-.069.464.048.087.098.134.21.098.088-.029.135.027.104.108-.016.044-.059.078-.072.122-.024.082-.056.17-.048.252.012.123.131.2.23.163.046-.017.088-.059.118.004a.24.24 0 0 1 .022.151c-.016.059-.069.108-.09.167-.035.1-.006.186.075.258.067.06.125.093.207.02.06-.053.113-.006.132.046.021.058.024.12.009.18-.031.096-.008.168.052.242.045.056.086.115.122.177.125.212.139.212.263-.002.006-.011.026-.014.041-.021.096.046.122.118.079.216-.03.068-.017.127.047.168l.332.192c.029.014.09-.004.117-.029.094-.086.188-.074.23.043.015.042.005.101.031.129.119.131.368.148.522.033.061-.046.111-.069.164-.006.158.186.343.16.542.081.03-.012.085.003.114.024a.32.32 0 0 0 .445-.022c.121-.123.126-.127.224 0 .065.084.135.094.23.066s.195-.034.203-.163c.004-.064-.001-.144.09-.137.064.006.129.041.187.075.051.03.099.111.14.106.125-.016.248-.05.363-.101.093-.041.178-.111.16-.242-.002-.014.087-.061.094-.054.122.122.24.035.355-.005.024-.008.048-.053.05-.084.013-.131.05-.17.14-.1.126.098.207.03.296-.035s.222-.116.168-.277c-.035-.105.043-.102.108-.096.039.004.074.029.112.039.165.042.248-.083.341-.176.078-.077.123-.163.042-.275-.064-.088-.002-.106.077-.102.061.004.152.034.179.005a1.76 1.76 0 0 0 .271-.357c.028-.048-.013-.137-.019-.178.091-.036.2-.048.254-.107.1-.113.226-.229.16-.413.298.029.405-.06.421-.331.002-.024-.002-.048.001-.072.024-.181.042-.35.24-.46.11-.061.222-.183.215-.349-.005-.11.048-.092.115-.05.034.021.103.048.114.034a2.59 2.59 0 0 0 .26-.34c.019-.03-.018-.102-.04-.149-.017-.035-.051-.063-.08-.098.078-.015.165-.006.188-.04.101-.151.22-.305.262-.475a.65.65 0 0 1 .197-.34l.392-.351a1 1 0 0 1 1.202-.066c.376.23.663.548.922.897l.126.157a1.74 1.74 0 0 0-.027-.51 3.38 3.38 0 0 0-.535-1.318zm-.387-3.178l-.204.05c-.261.045-.499-.061-.739-.132-.166-.048-.325-.128-.479-.21-.089-.048-.162-.125-.242-.19.236.059.447.151.658.244.237.105.481.171.745.146.383-.036.581-.326.461-.688-.035-.105-.091-.204-.138-.305l-.206-.432c-.117-.239-.077-.466.051-.685l.288-.46-.749.23c-.229.077-.458.153-.702.129a2.49 2.49 0 0 1-1.141-.405 7.91 7.91 0 0 1-.799-.609c-.228-.198-.412-.449-.647-.637-.216-.173-.372-.391-.55-.592-.616-.7-1.334-1.255-2.207-1.606-.553-.222-1.128-.334-1.715-.4-1.322-.15-2.462.248-3.419 1.163-.875.837-1.428 1.872-1.821 3.002l-.168.523c-.009.03.017.069.027.104a.67.67 0 0 0 .086-.029.35.35 0 0 0 .058-.043c.136-.008.248.045.349.133.032.027.095.057.123.043a.78.78 0 0 0 .255-.172c.033-.038 0-.133-.004-.203a.22.22 0 0 0-.01-.072c-.041-.096-.008-.144.087-.178.087-.031.166-.042.195.06.037.131.106.115.197.067a.62.62 0 0 1 .11-.048c.205-.064.392-.134.387-.408-.001-.092.123-.121.174-.035.092.156.2.12.344.099.281-.038.463-.131.445-.456-.002-.035.116-.085.185-.111.017-.006.077.048.088.084.058.199.055.2.255.151l.117-.024c.212-.057.213-.057.185-.277-.015-.123.03-.201.126-.216s.175.048.194.16c.038.219.072.246.288.208a1.41 1.41 0 0 0 .252-.078c.107-.041.154-.112.094-.225a.49.49 0 0 1-.041-.087c-.037-.118.018-.192.139-.18a1.36 1.36 0 0 1 .187.044c.264.066.264.066.153.312.18.098.367.096.55.027.147-.057.208-.171.144-.3-.066-.136.04-.158.105-.189.027-.013.106.045.139.088.046.058.05.128 0 .2-.014.021.013.106.029.108.124.019.251.04.375.03.073-.006.095-.078.041-.147-.024-.031-.064-.058-.072-.093-.012-.044-.007-.09.012-.13.014-.024.069-.04.103-.037.167.017.269.198.186.345-.061.107-.02.144.075.169a1.71 1.71 0 0 0 .164.038c.15.024.179.003.162-.157-.011-.113.048-.124.127-.109.047.01.091.03.129.06.152.114.148.232-.007.351-.088.067-.09.119 0 .184a1.6 1.6 0 0 0 .147.082c.211.121.235.108.273-.144.002-.011.021-.019.032-.027.24.131.304.249.201.419-.044.073-.069.132.001.186s.144.085.216.127l.079-.183c.006-.013.022-.02.033-.03a.65.65 0 0 1 .271.281c.026.066.013.113-.062.12-.122.014-.095.082-.057.151a1.43 1.43 0 0 0 .106.16c.136.182.154.181.292-.013.089.087.158.168.119.31-.047.169.154.415.323.386.106-.018.144.024.149.096.016.242.175.319.379.345.079.01.116.042.115.12-.002.135.075.201.198.233.053.014.101.056.154.064.108.018.176.056.219.173.05.135.269.227.378.16.117-.072.158-.014.204.068.059.104.126.131.233.055a.2.2 0 0 1 .074-.027c.026-.004.053-.002.079.005.288.104.589.129.887.18.342.058.673.018 1-.033.601-.093 1.146-.342 1.632-.711.032-.024.052-.063.096-.117l-.775.243c-.19.054-.386.082-.579.121zm32.599-1.816l.124.053a.73.73 0 0 0 .015-.11c0-.022-.019-.044-.024-.067a8.96 8.96 0 0 0-.553-1.451c-.402-.859-.942-1.615-1.666-2.231-.396-.34-.855-.599-1.351-.761-.789-.257-1.589-.238-2.392-.093-.632.114-1.234.32-1.793.642a5.63 5.63 0 0 0-1.523 1.265l-.462.517c-.07.075-.155.136-.225.21-.568.605-1.169 1.155-1.981 1.431-.392.133-.761.139-1.146-.004-.252-.093-.514-.158-.806-.246l.318.5c.103.181.139.375.052.576l-.216.48-.178.442c-.064.195.024.351.18.454.096.063.218.098.334.114.21.03.414-.017.609-.098l.764-.325c-.222.27-.514.411-.847.476a1.06 1.06 0 0 0-.184.041c-.216.086-.431.075-.646 0l-.577-.12-.742-.232-.035.037.14.09a3.71 3.71 0 0 0 2.158.753c.433.013.858-.061 1.274-.184.058-.017.143-.043.18-.016.131.096.212.074.288-.064.018-.033.092-.059.134-.052.235.037.346-.016.451-.223.023-.037.058-.065.098-.081.067-.026.135-.048.205-.063.153-.038.261-.112.264-.29 0-.079.048-.091.129-.093.168-.003.309-.148.352-.317.012-.046.069-.123.081-.12.197.072.245-.112.343-.198.036-.031.056-.123.037-.166-.07-.157.034-.233.125-.344l.115.214.278-.35c.02-.03.002-.128-.018-.135-.155-.053-.101-.144-.043-.223s.128-.136.2-.211c.115.293.146.299.35.091a.65.65 0 0 0 .055-.074c-.182-.245-.16-.323.142-.518.07.3.092.307.369.132.014-.009.029-.014.042-.024.147-.099.147-.109 0-.222-.118-.09-.127-.144-.033-.255a.56.56 0 0 1 .124-.112c.122-.075.199-.03.192.12-.006.118.053.139.146.127.055-.009.11-.022.164-.037.178-.046.185-.051.078-.207-.056-.082-.028-.132.026-.187.066-.068.125-.164.237-.117.034.014.057.087.06.135.002.03-.044.063-.065.096-.074.113-.048.17.091.184a.92.92 0 0 0 .168-.003c.181-.016.181-.017.158-.216a.29.29 0 0 1-.002-.072c.009-.086.044-.16.139-.165s.147.094.126.203c-.031.164.034.29.196.322s.332.048.49-.051c-.003-.025-.008-.049-.016-.072-.075-.155-.076-.156.086-.206a1.37 1.37 0 0 1 .232-.059c.058-.007.14-.011.171.022s.024.116.008.17c-.068.223-.057.252.17.323a.94.94 0 0 0 .163.039c.204.024.216.014.257-.192.024-.124.088-.186.185-.18.103.007.149.069.151.2.003.24.003.24.224.301l.093.024c.202.056.211.055.251-.145.02-.102.069-.112.151-.086.12.039.144.127.147.243.006.209.029.226.229.264.078.015.16.024.233.054.111.044.194.047.26-.072.021-.038.098-.076.134-.065s.089.082.087.125c-.009.196.108.264.269.309a.99.99 0 0 1 .197.089c.092.049.165.058.206-.062.034-.099.105-.106.192-.072s.13.089.102.185l-.034.139c-.05.181.118.199.206.279s.142.012.203-.039a.38.38 0 0 1 .354-.093zm-36.781-6.62c.037.029.072.066.113.086.246.123.448.038.514-.23.032-.13.022-.27.041-.404l.105-.61c.033-.127.111-.243.176-.379-.326.001-.553-.165-.764-.37-.177-.173-.279-.388-.369-.611-.167-.411-.214-.85-.293-1.281-.115-.635-.072-1.253.182-1.854.207-.488.323-1.004.374-1.526.067-.679-.027-1.352-.177-2.017-.006-.027-.032-.049-.048-.074-.027.022-.067.039-.078.067l-.211.585-.154.387c-.019-.012-.036-.027-.05-.046s-.023-.039-.028-.061a8.9 8.9 0 0 0-.583-1.491 2.2 2.2 0 0 0-1.109-1.075c-.889-.393-1.81-.587-2.774-.471-.638.077-1.24.295-1.766.686-1.106.827-1.674 1.927-1.659 3.308.004.399.103.789.339 1.128 0 .016.003.032.009.047a3.76 3.76 0 0 0 1.343 1.271c.05.028.108.041.181.068 0-.061.008-.096-.001-.123-.048-.152-.088-.296.102-.388.026-.012.041-.068.043-.105l.002-.362a.56.56 0 0 0-.087.009c-.107.032-.153.008-.14-.086.007-.05.034-.126.07-.139.192-.07.149-.244.185-.382.02-.076-.006-.127-.086-.139-.066-.01-.146-.02-.124-.106.028-.108.017-.244.148-.301.189-.082.313-.3.27-.485-.048-.212.041-.299.248-.252.037.008.077.006.112-.008.108-.045.216-.075.255-.223.017-.065.141-.11.224-.147s.099.044.139.093c.093.111.231.112.32-.013.114-.16.269-.156.429-.137.033.004.08.07.084.111.02.179.11.24.281.175l.224-.083c.208-.057.339.06.31.273-.02.148.04.224.19.232.063.003.131-.02.19-.005s.134.056.143.098c.031.148.122.295.01.456a.32.32 0 0 0-.034.247c.065.203.149.4.25.588.054.098.053.15-.018.227-.192.207-.182.338.034.509a.27.27 0 0 1 .065.414c-.047.065-.089.132-.126.203-.101.216-.072.329.116.493.088.077.107.184.009.267-.16.134-.152.288-.096.454a3.82 3.82 0 0 0 .148.376.27.27 0 0 1 .006.249.57.57 0 0 0 .178.714c.076.059.125.125.114.222-.021.171.071.286.181.398a1.8 1.8 0 0 1 .216.254c.428.635.93 1.197 1.572 1.625a4.09 4.09 0 0 0 .884.477l-.55-.877.033-.022.162.086zm27.551-.165c.004.041.024.09.01.122a2.39 2.39 0 0 1-.148.247l-.376.595c.638-.204 1.542-.914 1.961-1.44l.8-1.014c.065-.083.107-.165.095-.284-.007-.07.044-.17.101-.22.24-.21.304-.422.187-.718-.019-.044-.029-.091-.027-.138a.31.31 0 0 1 .037-.136 2.63 2.63 0 0 0 .146-.376c.048-.148.065-.284-.087-.406-.104-.083-.085-.227.024-.3a.26.26 0 0 0 .119-.288 1.61 1.61 0 0 0-.144-.373c-.101-.194-.087-.312.078-.457.188-.165.2-.3.02-.482-.092-.093-.084-.138-.015-.255.156-.267.355-.535.171-.887-.063-.12-.035-.285.051-.413.074-.111.186-.062.286-.062.19 0 .232-.048.216-.246-.018-.209.099-.312.304-.26.092.024.181.061.271.092.129.044.229-.007.253-.128.034-.177.048-.185.222-.176a.38.38 0 0 1 .287.151c.093.11.244.114.33.021.144-.157.284-.128.363.075.053.138.23.228.385.194.167-.038.259.06.219.233-.031.134.081.483.195.492.165.013.16.124.206.215.052.104.056.183-.089.208-.036.006-.094.053-.094.081 0 .156-.026.328.152.419.079.04.093.102.087.178-.006.083-.016.154-.125.079-.061-.042-.09-.007-.09.053 0 .072.013.143.014.215.002.096-.002.18.11.239.045.024.058.137.059.21s-.033.147-.052.225c.041.002.058.008.072.003.03-.011.059-.025.087-.04.467-.258.879-.581 1.188-1.022.081-.116.149-.24.222-.361a2.47 2.47 0 0 0 .337-1.319c-.007-.321-.079-.628-.173-.936a4.04 4.04 0 0 0-1.311-1.989c-.573-.472-1.241-.734-1.963-.825a4.61 4.61 0 0 0-1.875.146c-.414.122-.815.282-1.199.479-.209.105-.388.261-.521.453-.374.528-.605 1.121-.801 1.731l-.138.375-.376-.988a.49.49 0 0 0-.061-.09c-.024.027-.064.05-.072.081-.042.186-.096.372-.11.56a18.69 18.69 0 0 0-.054 1.313 2.91 2.91 0 0 0 .089.707 17.01 17.01 0 0 0 .358 1.187c.117.352.222.709.168 1.08l-.292 1.6c-.052.228-.166.452-.293.652-.205.323-.502.531-.906.555a.26.26 0 0 0 .02.068c.204.312.283.656.275 1.025a1.24 1.24 0 0 0 .011.264c.06.31.357.413.599.21.075-.063.139-.134.209-.2zm-3.508 17.342c.029.586-.195 1.065-.616 1.463-.246.233-.553.335-.873.408-.112 0-.224-.007-.337 0-.446.024-.804-.161-1.115-.461-.548-.528-.758-1.205-.811-1.936-.03-.404-.007-.812-.007-1.218l.01-.6.09-1.43c.006-.629.04-1.259-.042-1.888-.064-.496-.184-.969-.449-1.396-.315-.507-.721-.936-1.188-1.303-.224-.177-.474-.322-.713-.481-.112-.075-.216-.163-.337-.221a21.74 21.74 0 0 0-1.07-.483c-.124-.051-.159-.122-.137-.238.061-.322.123-.646.343-.908l.614-.704c.354-.381.779-.476 1.268-.295.031.011.072.002.136.002a1.21 1.21 0 0 0-.092-.133c-.295-.318-.305-.698-.043-1.044.192-.253.444-.422.753-.474.258-.043.524-.039.787-.055.08-.005.163.003.238-.016.199-.05.245-.196.115-.352l-.113-.124c-.174-.21-.291-.441-.26-.723l.048-.354c.051-.512.332-.869.767-1.114l1.135-.617c.278-.155.493-.376.658-.648.131-.216.118-.428-.01-.633-.069-.107-.152-.205-.245-.292s-.099-.163-.038-.272l.405-.76c.151-.275.222-.578.299-.875.089-.344.123-.703.213-1.047.086-.33.191-.654.413-.933a2.13 2.13 0 0 0 .419-.876c.164-.734.272-1.474.261-2.226-.006-.405-.048-.811-.092-1.214-.056-.499-.15-.993-.332-1.464-.022-.056-.064-.104-.096-.156-.038-.104-.067-.213-.117-.312-.379-.759-.8-1.494-1.285-2.19-.457-.655-.945-1.287-1.505-1.861-.391-.401-.792-.789-1.231-1.14-.589-.471-1.199-.91-1.88-1.237-.845-.406-1.723-.73-2.646-.912-.539-.106-1.08-.218-1.635-.213-.119 0-.246.057-.355.029-.447-.113-.874.043-1.308.078-.331.026-.655.136-.982.212a10.2 10.2 0 0 0-2.564.985c-.849.46-1.601 1.056-2.301 1.715-.972.916-1.771 1.973-2.471 3.106l-.594 1.066-.378.742c-.202.439-.266.914-.344 1.385-.028.165-.086.329-.086.493l-.007 1.408.063.737c.017.15.056.297.08.446.077.499.184.986.513 1.392.19.234.3.507.376.795l.058.256.201.878c.04.237.094.467.196.683l.49.986c.096.188.1.182-.045.316-.079.068-.147.145-.205.232-.13.214-.192.432-.033.669.177.262.385.493.656.653l.952.508c.232.125.453.258.632.464.276.316.321.704.387 1.087a.54.54 0 0 1-.072.393l-.34.517c-.081.12-.084.177.034.258.066.042.142.066.22.07l.577.007c.409.017.766.163 1.042.47.282.312.327.731.044 1.042-.044.048-.072.112-.138.216l.28-.078c.349-.103.678-.04.945.19a4.66 4.66 0 0 1 .865.958c.218.33.24.723.33 1.093.009.036-.053.11-.099.135l-.68.353c-.062.033-.116.081-.174.122l-.185.102c-.683.432-1.269.965-1.732 1.632-.409.587-.532 1.266-.556 1.95-.029.797-.002 1.598.052 2.394a24.33 24.33 0 0 1 .072 1.626c0 .366.003.731-.079 1.095-.137.605-.361 1.156-.843 1.574-.281.243-.595.398-.976.388-.136-.004-.272.001-.409.002l-.364-.112c-.755-.319-1.072-.928-1.123-1.71.045-.127.139-.192.27-.19s.27.017.403.039c.09.014.14 0 .143-.101.009-.325-.033-.636-.24-.904a.74.74 0 0 0-.826-.374c-.148.03-.293.075-.433.134-.237.107-.483.157-.738.192a.92.92 0 0 0-.665.384c-.132.19-.133.309.003.491a.21.21 0 0 1-.015.336.96.96 0 0 1-.104.1c-.2.161-.256.377-.246.621.005.128.046.228.166.297s.154.195.099.299c-.022.041-.062.072-.093.109-.202.235-.203.317-.057.6.061.117.085.253.128.38.012.035.03.069.051.117a1.07 1.07 0 0 1 .128-.087c.024-.012.065-.018.084-.005.084.055.128.332.072.414-.12.176-.12.176.024.327l.167.173a.39.39 0 0 0 .198.112c.056.003.109.074.163.115-.038.044-.069.097-.114.132-.123.093-.15.159-.052.246.177.156.341.339.592.4l.064-.182c.184.109.282.263.365.427.042.084.06.17-.07.206-.095.026-.108.096-.052.165s.122.149.199.2c.113.074.24.125.361.188.136.07.214.027.222-.127v-.285c.395.186.45.308.238.559l.513.131c.249.085.453.1.532-.22.008-.031.076-.069.112-.065.03.003.065.058.08.096.055.151.081.174.236.161l.356-.038s.186-.062.165-.18c-.016-.091.003-.154.094-.147.044.004.105.066.122.114.064.18.06.185.242.129a2.89 2.89 0 0 0 .337-.123c.102-.046.175-.126.129-.248s.029-.178.117-.226c.102-.055.151.024.186.094.06.12.144.111.238.055a5.72 5.72 0 0 0 .346-.216c.151-.104.148-.107.093-.29-.004-.028-.004-.056 0-.084.036.002.079-.008.108.008s.055.056.079.087c.096.121.131.138.25.05a2.36 2.36 0 0 0 .319-.29c.235-.249.238-.344.043-.617-.004-.005 0-.016 0-.054.079.017.157.021.224.051.107.048.191.029.251-.063.096-.147.206-.291.27-.452.096-.243.144-.344-.099-.55-.013-.011-.013-.038-.024-.074l.104.015h.085c-.023-.21.002-.296.122-.294.171.003.214-.107.273-.221l.183-.336c.08-.16.075-.171-.072-.268-.026-.017-.075-.035-.072-.05a4.78 4.78 0 0 1 .065-.491c.01-.05.08-.098.129-.028.103.146.148.034.175-.043l.175-.571a1.02 1.02 0 0 0 .05-.233.21.21 0 0 0-.056-.144c-.017-.017-.084.01-.125.026-.055.02-.107.048-.184.085.037-.306.099-.554.318-.755.106-.096.171-.25.225-.389.037-.098.043-.208-.041-.314s-.009-.294.116-.294c.133 0 .144-.082.168-.158a2.82 2.82 0 0 0 .103-.418c.021-.139.052-.286-.114-.381-.042-.024-.064-.107-.07-.166-.014-.13.028-.249.096-.357a.2.2 0 0 1 .054.017c.115.096.125.1.171-.021a3.14 3.14 0 0 0 .153-.503c.018-.086-.018-.182-.029-.274l-.244.081c-.007-.176-.043-.355.056-.526.048-.084.094-.145.166-.027.052.084.109.068.147.004a8.31 8.31 0 0 0 .261-.483c.04-.079.016-.139-.074-.166-.041-.012-.08-.029-.149-.054.081-.084.135-.154.203-.206.08-.062.186-.064.224.035.058.151.135.111.212.042a2.36 2.36 0 0 0 .242-.258c.048-.058.062-.123.01-.198-.024-.035-.038-.11-.017-.139.043-.063.114-.051.165.003.07.074.14.06.216.015l.168-.092c.221-.129.231-.156.159-.41-.003-.01-.004-.021-.002-.032s.006-.021.012-.03c.014-.013.053-.021.064-.011.052.047.115.092.144.152.058.12.14.149.252.095l.409-.213c.088.058.175.131.274.177.227.104.256.09.402-.118.009-.013.015-.032.027-.039.04-.021.082-.037.124-.055l.004.123c0 .067-.034.166-.002.195.117.105.254.189.386.275.096.062.157-.014.233-.058.034-.02.112 0 .149.03.063.05-.003.093-.029.14s-.054.12-.035.144a4.14 4.14 0 0 0 .329.343c.05.048.09.026.134-.032.117-.156.233-.152.357.004.055.068.102.138-.033.175-.115.032-.128.121-.086.209.072.151.157.296.242.441.031.053.069.075.133.016.12-.112.147-.105.201.045a1.17 1.17 0 0 1 .057.278c.009.093.002.188.002.289a1.21 1.21 0 0 0-.133-.12c-.036-.024-.092-.053-.124-.041s-.059.08-.051.116l.156.624c.024.085.063.207.192.078.008-.008.061.01.075.029.096.125.104.37-.008.462-.154.126-.15.266-.099.429l.109.392c.023.074.041.137.156.141s.203.199.126.271c-.157.149-.083.3-.016.436a1.6 1.6 0 0 0 .276.387c.172.181.188.399.216.652l-.113-.054s-.053-.037-.081-.05c-.109-.049-.196-.004-.168.103a15.04 15.04 0 0 0 .27.891c.024.074.076.07.12.001.056-.088.107-.039.148.015.091.118.066.258.072.393.003.069-.005.12-.085.148-.12.042-.122.136-.074.235a13.62 13.62 0 0 0 .227.45c.044.083.106.135.21.13s.177.057.159.161c-.027.156.077.148.203.162-.24.123-.252.318-.177.506s.191.349.297.518c.057.091.148.113.254.082.07-.02.141-.031.244-.053-.189.306-.197.399-.024.617a1.7 1.7 0 0 0 .33.311c.158.115.17.105.298-.05.015-.019.03-.043.05-.051a.59.59 0 0 1 .109-.019c.003.035.022.079.007.102-.069.108-.022.184.063.246a4.62 4.62 0 0 0 .338.226c.157.094.172.088.288-.056.045-.054.087-.133.173-.08.072.045.144.096.139.205-.011.208 0 .226.18.301a3.58 3.58 0 0 0 .34.118c.09.027.159.012.161-.106 0-.087.026-.166.134-.157.093.007.107.078.103.158-.006.123.064.167.179.172s.221.026.332.037c.155.016.214-.026.257-.168.01-.034.039-.09.053-.088.045.007.088.027.122.058.026.024.028.072.046.109.091.183.134.201.34.152l.282-.057.365-.113c-.166-.197-.168-.278-.022-.399.072-.059.175-.155.235-.137.13.039.024.161.031.247.006.057.035.133.079.159.037.022.113-.005.165-.027a1.73 1.73 0 0 0 .296-.153c.093-.06.175-.136.248-.219.061-.069.07-.148-.054-.173-.092-.019-.12-.076-.083-.159.081-.182.168-.36.363-.456.08.199.084.206.26.094a2.54 2.54 0 0 0 .36-.277c.144-.133.133-.171-.018-.298-.036-.03-.077-.09-.07-.126.009-.045.065-.112.103-.114.259-.009.34-.242.496-.378.054-.048.054-.12-.013-.165-.178-.12-.107-.257-.039-.4.043-.089.087-.134.174-.043.053.054.098.043.125-.03l.204-.533c.069-.151.044-.279-.053-.402-.035-.044-.078-.08-.114-.123-.116-.136-.105-.25.048-.354.118-.08.159-.181.167-.322a.74.74 0 0 0-.288-.649c-.205-.175-.207-.226-.034-.436.091-.111.096-.216.037-.331-.104-.207-.247-.394-.482-.436a7.74 7.74 0 0 1-1.309-.365.18.18 0 0 0-.024-.005c-.42-.1-.667-.006-.93.353a1.52 1.52 0 0 0-.236.813c0 .207 0 .194.215.168.204-.026.43-.095.591.121zm-17.957-.863c.114-.022.182-.096.249-.172.436-.5.543-1.1.475-1.729-.056-.524-.156-1.043-.256-1.56-.101-.523-.17-1.041.014-1.56.004-.012-.007-.029-.014-.055-.134-.015-.195.08-.247.177-.155.293-.252.6-.255.939-.003.358.094.696.173 1.038.127.552.271 1.102.218 1.68-.039.424-.073.846-.357 1.196-.006.006-.001.022-.001.048h0zm15.261-.102l.054-.029c-.027-.052-.048-.108-.082-.154-.159-.202-.263-.442-.303-.696a7.84 7.84 0 0 1-.094-.808c-.023-.451.086-.888.172-1.326.072-.36.148-.72.124-1.091a1.8 1.8 0 0 0-.328-.936c-.04-.056-.148-.127-.187-.11-.101.048-.018.14.004.205a1.91 1.91 0 0 1 .101.85l-.254 2.068c-.055.562.04 1.103.382 1.572.12.164.272.305.41.457h0zm-23.849-2.892c-.088 0-.125-.002-.161 0l-.982.068c-.542.037-.963-.178-1.282-.61-.033-.044-.082-.076-.144-.133a1.25 1.25 0 0 0 .163.799c.255.449.712.666 1.219.564.45-.09.835-.309 1.187-.689zm32.313-.573c.045.066.057.095.079.113a2.55 2.55 0 0 0 .938.51c.95.28 1.569-.526 1.533-1.186-.003-.056-.015-.111-.03-.216l-.191.248c-.235.3-.523.521-.916.547l-.908.016c-.154 0-.309-.018-.505-.031zm2.865-18.149l.058-.027a5.18 5.18 0 0 0-.364-1.329.73.73 0 0 0-.151-.214c-.142-.147-.272-.146-.37.031-.095.166-.161.346-.197.534l-.167 1.258-.092.709c.078-.156.116-.318.168-.476l.27-.741c.045-.105.137-.192.218-.278.089-.093.192-.078.272.014a3.85 3.85 0 0 1 .24.328l.115.195v-.001zm-37.057 1.19l.069-.008-.058-.367-.204-1.3c-.037-.181-.138-.357-.242-.514-.091-.139-.185-.138-.295-.016a1.07 1.07 0 0 0-.205.318 4.45 4.45 0 0 0-.273 1.163c-.004.04.006.081.015.172l.268-.453c.178-.255.303-.256.505-.014a.67.67 0 0 1 .105.16 12 12 0 0 1 .224.554c.037.099.06.204.09.306zm13.329 11.233l-.01-.07-1.028-.185a.71.71 0 0 0-.289.032c-.093.031-.179.081-.252.146.017.021.02.031.026.032l.41.133c.303.103.313.121.134.38a3.64 3.64 0 0 0-.492 1.04l.631-.843c.23-.292.532-.504.869-.666zm10.642 1.357l.04-.017c-.043-.131-.067-.273-.132-.391l-.439-.71c-.08-.127-.079-.151.06-.212l.446-.173c.038-.016.067-.054.1-.082-.037-.025-.072-.06-.112-.074-.214-.07-.425-.107-.655-.034-.253.08-.522.108-.809.213l.618.406a3.39 3.39 0 0 1 .487.49c.148.18.266.387.398.583v.001zM9.066 39.598c-.231.063-.361-.018-.407-.226-.244.24-.943 1.421-.977 1.664l.615-.754c.225-.234.486-.435.769-.684zm9.837-1.839c.002-.188-.124-.333-.295-.339-.184-.005-.381.192-.383.386-.002.184.124.317.306.323a.34.34 0 0 0 .372-.37zm23.166.06c.034-.168-.16-.384-.371-.397-.147-.01-.302.152-.307.309-.007.213.16.397.361.398s.314-.115.318-.31zm6.775 8.674c-.006-.183-.187-.36-.356-.347-.157.011-.271.142-.266.306.006.195.168.354.352.343a.28.28 0 0 0 .269-.303zm-36.771-.04c.001-.172-.111-.303-.262-.308a.43.43 0 0 0-.357.358c0 .147.151.302.292.291.215-.017.35-.197.327-.341zm6.034-5.306c-.022-.3-.078-.607-.058-.909s.114-.6.179-.912c-.42.442-.523 1.434-.12 1.821h-.001zm23.977-.371c.399-.489.203-1.43-.194-1.823.073.302.175.591.206.886.033.303-.003.614-.011.936v.001zM6.828 43.271l.068.02c.025-.063.059-.124.075-.189.141-.582.288-1.16.567-1.696.012-.022-.011-.063-.028-.139-.35.663-.554 1.321-.682 2.004zm7.614 26.311c.532.168.938.44 1.25.843a2.42 2.42 0 0 1 .51 1.397c.019.402-.008.799-.141 1.183a2.01 2.01 0 0 1-.864 1.085c-.451.281-.953.419-1.474.469l-1.533.084-4.085.013c-.286 0-.264.022-.264-.253v-9.526c0-.268-.037-.267.252-.266l4.781.018c.514.002 1.024.084 1.511.246.961.323 1.474 1.004 1.528 2.017.022.417.016.83-.128 1.231a2.35 2.35 0 0 1-1.035 1.278l-.309.181zm-3.545 2.012l-.001.719c-.002.099.03.144.136.142l1.223-.008a.75.75 0 0 0 .762-.79 1.54 1.54 0 0 0-.033-.356c-.072-.356-.246-.518-.606-.531l-1.343-.011c-.103-.001-.142.037-.14.14l.001.695zm0-3.976l-.002.672c-.004.123.036.173.165.168l.673-.004c.159-.004.321-.006.477-.037.335-.066.544-.281.577-.589.017-.151.015-.303-.004-.454-.053-.379-.256-.567-.642-.582l-1.104-.009c-.104-.001-.141.038-.139.14l-.001.694h.001zm15.547 2.298c-.042 1.38-.689 2.868-2.114 3.957-1.755 1.341-4.135 1.245-5.795-.213-1.051-.923-1.638-2.089-1.771-3.481-.139-1.449.213-2.764 1.12-3.909.713-.901 1.631-1.508 2.767-1.738a4.78 4.78 0 0 1 4.995 2.15c.543.862.8 1.777.798 3.235zm-6.654-.08c.008.413.224.973.71 1.411.649.586 1.528.581 2.176-.005.913-.826.966-2.378.108-3.264-.733-.757-1.847-.702-2.495.13-.341.439-.506.94-.5 1.728zm16.88-.327c-.039 1.71-.649 3.169-1.993 4.262-1.847 1.503-4.416 1.373-6.122-.291-1.007-.982-1.532-2.185-1.595-3.592-.058-1.302.275-2.489 1.068-3.529.729-.955 1.674-1.605 2.866-1.832 1.576-.301 2.975.11 4.154 1.184.99.901 1.504 2.049 1.597 3.385l.025.412zm-3.056.01c-.009-.6-.213-1.165-.689-1.612-.649-.609-1.581-.614-2.216-.023-.885.825-.951 2.323-.141 3.219.699.774 1.773.774 2.466-.003.39-.436.576-.953.579-1.582z"/><path d="M41.984 67.558l-.115-.282c-.302-.723-1.154-.798-1.67-.523-.309.164-.346.787-.033.997.192.128.401.196.623.237l1.063.189a5.2 5.2 0 0 1 .603.158 2.38 2.38 0 0 1 1.624 1.665c.245.834.236 1.68-.074 2.498-.488 1.286-1.453 2.015-2.791 2.257-.694.125-1.387.069-2.067-.125a2.91 2.91 0 0 1-1.653-1.203c-.192-.279-.351-.58-.471-.896l.2-.096 1.694-.737c.247-.106.21-.111.313.107a1.74 1.74 0 0 0 .232.362c.436.525.858.543 1.375.414.309-.077.482-.323.5-.657.018-.324-.096-.543-.417-.651-.3-.101-.621-.141-.933-.209-.32-.069-.652-.105-.957-.216-1.029-.374-1.648-1.118-1.799-2.201-.126-.901.01-1.774.499-2.562a3.3 3.3 0 0 1 2.912-1.649c.54-.01 1.073.055 1.582.24a2.64 2.64 0 0 1 1.727 1.854c.037.129.01.181-.111.232l-1.855.797zm2.783-.201l-.012-.183.007-2.353c0-.207.003-.21.212-.21h7.86c.21 0 .212.003.212.21l-.01 2.353c0 .185-.004.184-.184.16l-2.187-.295c-.219-.029-.222-.029-.222.206v7.082c0 .366.043.319-.318.32h-2.452-.168c-.068 0-.104-.03-.103-.101v-.192-7.034-.168c-.005-.163-.005-.163-.179-.139l-2.456.345zM20.685 11.381h-.239c-1.121 0-2.243-.003-3.364.004a.32.32 0 0 1-.334-.194L15.404 8.7c-.08-.151-.171-.202-.337-.195l-.889.004c-.197.001-.2.003-.2.197l-.001 2.353c0 .37.05.322-.312.323h-2.596c-.224 0-.208.007-.208-.209V1.356c0-.203.002-.205.213-.205l4.974.007c1.02.013 1.912.374 2.598 1.152.612.696.793 1.522.657 2.418-.13.858-.51 1.595-1.181 2.161-.114.096-.057.157-.007.238l1.531 2.523.958 1.58c.027.04.047.081.082.151zm-6.059-5.379V6l.503-.001c.481-.025.845-.286.961-.696a1.89 1.89 0 0 0-.025-1.108c-.118-.369-.372-.574-.754-.596l-1.198-.028c-.108-.003-.135.048-.135.146V5.87c0 .109.046.136.144.133l.503-.001zM59.07 11.56l-6.132-4.201v3.704a1.57 1.57 0 0 0 0 .168c.012.112-.028.168-.147.152a.77.77 0 0 0-.096 0h-2.62c-.281 0-.253.022-.253-.264V7.014 1.028c.108-.014.168.059.234.105l5.27 3.611.629.425V1.436v-.168c-.003-.077.024-.122.109-.117.032.002.064 0 .096 0h2.692c.216 0 .218.002.218.227v9.963.219zM9.66 1.152l-.135.254-2.379 4.139c-.09.155-.102.267-.011.432l2.847 5.167.123.237h-.239c-1.065 0-2.131-.004-3.196.005-.17.001-.251-.059-.328-.203L4.28 7.335a.49.49 0 0 0-.157-.192v.251 3.671a1.56 1.56 0 0 0 0 .168c.013.118-.04.152-.153.15l-1.01-.002H1.181c-.172 0-.172-.004-.177-.168v-.12-9.647c0-.336-.041-.293.292-.294h2.548.144c.109-.01.14.048.133.144-.004.056 0 .112 0 .168v3.648c-.002.068.012.135.041.196l.09-.153 2.009-3.796a.33.33 0 0 1 .347-.212l2.813.005.239.001zm25.526 4.147l1.304-2.457.819-1.548c.048-.091.096-.147.216-.147l3.051.005a.45.45 0 0 1 .083.02l-.125.235-2.391 4.16a.34.34 0 0 0-.007.389l2.846 5.169.13.256h-.237c-1.065 0-2.131-.005-3.196.004-.172.002-.251-.062-.327-.205L35.29 7.334c-.036-.067-.074-.133-.157-.189v3.947.192c0 .072-.037.099-.105.098h-.144-2.62c-.048 0-.096-.002-.144 0-.068.002-.104-.026-.102-.098v-.168V1.42c0-.3-.031-.268.27-.268h2.572.144c.088-.006.137.026.131.122-.004.056 0 .112 0 .168v3.853l.052.004zm6.686.95V1.448 1.28c-.005-.088.024-.137.122-.13.048.004.096 0 .144 0h6.298c.288 0 .263-.024.264.252v2.017c0 .179-.003.182-.187.183h-3.197c-.056.003-.112.003-.168-.001-.133-.018-.161.048-.16.166l.002 1.104c0 .175.004.177.192.178h2.019 1.322c.17 0 .174.005.175.174v2.065c0 .209-.002.211-.209.211h-3.125c-.376 0-.376 0-.376.384v.768c.002.321-.036.286.276.286h3.053c.38 0 .38 0 .38.378v1.849c0 .213-.002.216-.202.216h-6.418c-.204 0-.206-.002-.206-.211L41.87 6.25zM26.063.974l5.346 10.407h-.242c-.881 0-1.762-.005-2.644.004-.162.002-.243-.042-.301-.196l-.385-.93c-.048-.119-.106-.173-.244-.172H24.54c-.136 0-.2.046-.249.167l-.417.995c-.032.077-.063.135-.168.135l-2.933-.009c-.006 0-.013-.006-.043-.022L26.063.974zm.864 6.947l-.838-2.065-.052.002-.836 2.065 1.726-.002z"/></g><path d="M40.628 26.258c.033.052.075.1.096.156.183.471.276.965.332 1.464l.092 1.214c.011.752-.096 1.491-.261 2.226-.071.32-.214.62-.419.876-.222.279-.327.604-.413.933-.09.344-.124.703-.213 1.047-.078.297-.148.6-.299.875l-.405.76c-.062.109-.055.185.038.272s.178.184.247.291c.128.205.141.417.01.633-.165.272-.38.494-.658.648l-1.135.617c-.435.245-.716.602-.767 1.114l-.048.354c-.031.282.086.513.26.723l.113.124c.129.156.084.302-.115.352-.076.019-.159.011-.238.016l-.787.055c-.309.052-.561.221-.753.474-.262.346-.252.726.043 1.044a1.24 1.24 0 0 1 .092.133c-.065 0-.105.01-.136-.002-.488-.181-.914-.086-1.268.295l-.614.704c-.22.261-.282.586-.343.908-.022.116.014.186.138.238l1.07.483c.12.058.226.146.337.221.003.032-.007.074.01.094l.36.414a6.72 6.72 0 0 1 1.027 1.769c.262.657.3 1.35.317 2.039l.008 3.428c0 .08-.005.162.011.239l.239 1.044c.087.321.159.654.359.93l.55.689c.11.134.252.188.429.226.327.072.632-.01.945-.049.109-.014.228-.005.305-.108.321-.074.627-.175.874-.408.421-.398.645-.877.616-1.463l.09.065c0-.122.015-.231-.004-.336-.027-.152-.065-.292-.224-.39-.128-.079-.212-.228-.318-.343a1.27 1.27 0 0 0-.118-.101c.265-.36.511-.453.93-.353.008.001.016.003.024.005a7.75 7.75 0 0 0 1.309.365c.235.043.378.23.482.436.059.116.055.221-.037.331-.173.21-.173.258.034.436s.303.378.288.649c-.008.141-.048.242-.167.322-.153.104-.163.218-.048.354l.114.123a.36.36 0 0 1 .053.402c-.078.173-.138.355-.204.533-.027.072-.072.084-.125.03-.087-.09-.132-.046-.174.044-.068.142-.139.28.039.399.067.045.067.117.013.165-.155.137-.237.369-.496.378-.038 0-.094.069-.103.114-.007.037.034.096.07.126.151.127.162.165.018.298a2.53 2.53 0 0 1-.361.277c-.176.111-.18.105-.26-.094-.192.097-.282.274-.362.456-.037.084-.009.14.083.159.124.025.115.104.054.173-.073.083-.156.157-.248.219a1.76 1.76 0 0 1-.296.153c-.052.022-.128.05-.165.027-.044-.026-.072-.102-.079-.159-.008-.086.099-.208-.031-.247-.06-.018-.163.078-.235.137-.148.12-.144.202.022.399l-.365.113c-.093.024-.189.035-.282.057-.206.048-.25.031-.34-.152-.017-.036-.02-.084-.046-.109-.034-.031-.076-.051-.122-.058-.014-.002-.043.055-.053.088-.043.143-.102.184-.257.168l-.332-.037c-.115-.006-.185-.05-.179-.172.004-.08-.01-.151-.103-.158-.108-.009-.134.07-.134.157-.002.118-.07.133-.161.106a3.55 3.55 0 0 1-.34-.118c-.179-.075-.192-.093-.18-.301.006-.11-.066-.161-.138-.205-.086-.053-.128.024-.173.08-.117.144-.133.149-.288.056l-.338-.226c-.085-.061-.132-.137-.063-.246.015-.024-.004-.068-.007-.102a.58.58 0 0 0-.109.019c-.02.007-.034.032-.049.051-.128.155-.14.165-.298.05a1.7 1.7 0 0 1-.33-.311c-.172-.218-.164-.312.024-.617l-.244.053c-.105.03-.196.009-.254-.082-.106-.168-.224-.334-.297-.517s-.062-.382.177-.506c-.126-.014-.23-.006-.203-.162.018-.104-.051-.168-.159-.161s-.167-.048-.21-.13l-.227-.45c-.048-.099-.048-.192.074-.235.08-.028.088-.079.085-.148-.006-.135.018-.275-.072-.393-.042-.054-.092-.103-.148-.015-.044.069-.096.072-.12-.001l-.27-.891c-.028-.107.06-.153.168-.103.029.013.054.035.081.05s.054.026.113.054c-.028-.253-.043-.471-.216-.652a1.6 1.6 0 0 1-.276-.387c-.067-.136-.141-.288.016-.436.077-.072-.009-.268-.126-.271s-.134-.068-.156-.141l-.109-.392c-.051-.164-.055-.304.099-.429.112-.091.104-.336.008-.462-.015-.019-.067-.037-.076-.029-.129.128-.167.006-.192-.078l-.156-.624c-.008-.035.022-.104.051-.116s.088.016.124.041a1.2 1.2 0 0 1 .133.12l-.002-.289c-.008-.095-.027-.188-.057-.278-.054-.15-.08-.157-.201-.045-.064.059-.102.037-.133-.016l-.242-.441c-.042-.087-.029-.177.086-.209.135-.037.087-.107.033-.175-.125-.156-.24-.16-.357-.004-.044.058-.084.08-.134.032a4.11 4.11 0 0 1-.329-.343c-.019-.024.011-.1.035-.144s.092-.09.029-.14c-.036-.029-.115-.049-.149-.03-.076.044-.137.12-.233.058-.133-.086-.269-.17-.386-.275-.032-.028 0-.128.002-.195l-.004-.123-.124.055c-.012.007-.018.026-.027.039-.146.208-.175.222-.402.118-.1-.046-.187-.12-.274-.177l-.409.213c-.113.054-.195.026-.252-.095-.029-.06-.091-.105-.144-.152-.011-.01-.05-.002-.064.011-.006.009-.01.019-.012.03s-.001.022.002.032c.072.254.062.281-.159.41l-.168.092c-.076.044-.146.058-.216-.015-.051-.054-.122-.066-.165-.003-.021.03-.007.104.017.139.051.075.038.14-.01.198a2.33 2.33 0 0 1-.244.262c-.078.069-.155.109-.212-.042-.038-.099-.144-.098-.224-.035-.067.052-.121.122-.203.206l.149.054c.09.027.114.087.074.166l-.261.483c-.038.064-.095.08-.147-.004-.072-.118-.118-.056-.166.027-.099.171-.062.35-.056.526l.244-.081c.011.091.048.188.029.274-.037.171-.088.339-.153.503-.046.12-.056.116-.171.021-.017-.008-.035-.014-.054-.017a.55.55 0 0 0-.096.357c.006.059.028.142.07.166.167.096.136.242.114.382a2.79 2.79 0 0 1-.103.418c-.024.076-.035.159-.168.159-.125 0-.199.19-.116.294s.079.216.041.314c-.053.139-.119.292-.224.389-.219.201-.281.449-.318.755l.184-.085c.041-.016.108-.043.125-.026a.21.21 0 0 1 .056.144c-.007.08-.024.158-.05.233l-.175.571c-.027.077-.072.188-.175.043-.048-.07-.12-.022-.13.028-.03.163-.052.327-.065.491 0 .014.048.033.072.049.146.096.151.107.072.268l-.183.336c-.059.113-.102.223-.273.221-.12-.002-.144.083-.122.294h-.085c-.028-.002-.059-.009-.104-.015.011.036.011.063.024.074.244.207.196.308.099.55-.064.161-.173.305-.27.452-.06.092-.144.111-.251.063-.067-.03-.144-.034-.224-.051 0 .038-.003.048 0 .054.195.273.192.367-.043.617-.097.106-.204.203-.319.289-.12.087-.155.072-.25-.05-.024-.031-.046-.07-.079-.087s-.072-.006-.108-.008c-.004.028-.004.056 0 .084.055.183.058.185-.093.29l-.346.216c-.095.056-.178.066-.238-.055-.035-.071-.084-.148-.186-.094-.088.048-.163.101-.117.226s-.027.202-.129.248a2.74 2.74 0 0 1-.337.123c-.182.056-.178.051-.242-.129-.017-.048-.077-.11-.122-.114-.091-.007-.11.056-.094.147.022.118-.045.173-.165.18s-.237.028-.356.038c-.154.013-.18-.01-.236-.161-.014-.039-.05-.094-.08-.096-.036-.004-.104.034-.112.065-.079.319-.284.304-.532.22-.162-.055-.332-.086-.513-.131.211-.251.157-.373-.238-.559v.285c-.007.155-.086.198-.222.127l-.36-.188a.92.92 0 0 1-.199-.2c-.059-.073-.043-.139.052-.165.13-.036.111-.122.069-.206-.083-.164-.181-.317-.365-.427l-.064.182c-.251-.061-.415-.244-.592-.4-.099-.087-.072-.153.052-.246.045-.034.076-.087.114-.132-.054-.041-.107-.112-.163-.115-.094-.005-.144-.05-.198-.112s-.111-.116-.167-.173c-.146-.151-.146-.151-.024-.327.056-.082.012-.36-.072-.414-.019-.013-.06-.007-.084.005a1.1 1.1 0 0 0-.128.087l-.051-.117c-.043-.127-.067-.264-.128-.38-.146-.283-.145-.366.057-.6.031-.036.072-.067.093-.109.055-.104.016-.233-.099-.299s-.161-.168-.166-.297c-.01-.244.047-.46.246-.621a.99.99 0 0 0 .104-.1c.113-.124.116-.201.015-.336-.136-.182-.136-.301-.003-.491.162-.232.394-.349.665-.384.255-.034.502-.084.738-.192a2.27 2.27 0 0 1 .433-.134c.161-.039.33-.023.48.045a.74.74 0 0 1 .351.331l-.471.493c-.175.179-.212.4-.104.662.051.782.368 1.391 1.123 1.71.116.048.242.075.364.112.07.032.138.083.211.094.36.053.714.148 1.087.06.123-.029.227-.053.309-.149l.54-.637c.103-.132.186-.277.248-.432a7.03 7.03 0 0 0 .229-.727c.078-.291.177-.584.204-.881.045-.507.05-1.018.054-1.528l.008-2.637a5.49 5.49 0 0 1 .116-1.017c.157-.754.529-1.416.97-2.036.188-.264.425-.495.637-.742.029-.034.116-.057.046-.129.058-.041.111-.09.174-.122l.68-.353c.046-.025.108-.099.099-.135-.089-.37-.112-.763-.33-1.093-.24-.363-.54-.677-.865-.958-.267-.23-.596-.293-.945-.19l-.28.078c.066-.105.094-.168.138-.216.282-.312.238-.729-.044-1.042-.276-.307-.633-.452-1.042-.47-.192-.008-.385.004-.577-.006-.079-.003-.156-.027-.222-.07-.118-.08-.115-.138-.034-.258l.34-.517a.54.54 0 0 0 .072-.393c-.066-.384-.112-.771-.388-1.087-.179-.206-.4-.34-.632-.464l-.952-.508c-.27-.16-.479-.39-.656-.653-.161-.238-.096-.456.033-.67.057-.086.126-.164.205-.232.144-.134.142-.128.045-.317l-.49-.986c-.102-.216-.156-.446-.196-.683-.05-.296-.133-.586-.201-.878l-.058-.256c-.076-.288-.187-.561-.376-.795-.329-.407-.436-.894-.513-1.392l-.079-.446-.064-.737c-.045-.47.007-.939.007-1.408 0-.164.058-.328.086-.493.078-.471.143-.946.345-1.385l.378-.742c-.007.047-.004.098-.022.139l-.323.717c-.072.18-.156.36-.168.567.117.008.144-.072.188-.137l.479-.713.897-1.149c.28-.315.609-.587.915-.879.391-.372.855-.635 1.326-.887.038-.02.093-.007.195-.011-.394.378-.606.81-.815 1.235a5.99 5.99 0 0 0-.45 1.248c-.135.549-.201 1.112-.198 1.677.002.174.043.348.041.522-.005.377.099.737.163 1.103a1.58 1.58 0 0 0 .048.233l.334.956a6.3 6.3 0 0 0 .319.72l.596 1.025c.384.644.829 1.249 1.329 1.807.307.345.656.654 1.003.96.473.419.986.788 1.564 1.05.337.157.683.295 1.036.413.294.096.605.199.907.195.803-.01 1.611.105 2.409-.12.439-.123.878-.24 1.285-.44.829-.408 1.557-.962 2.22-1.603.131-.127.247-.271.366-.41l.658-.788.84-1.244c.466-.719.828-1.501 1.075-2.322.194-.641.319-1.296.298-1.974l-.002-.72c.004-.056.003-.112-.004-.168-.12-.648-.248-1.292-.524-1.899-.211-.463-.421-.923-.776-1.3-.032-.034-.041-.09-.06-.135.216.054.409.127.579.236a8.42 8.42 0 0 1 .795.57c.276.229.541.472.793.728a5.82 5.82 0 0 1 .494.585l.865 1.17c.115.154.179.352.407.483l-.085-.312-.125-.458zm-12.51 15.229c.225.071.248.061.243-.147-.004-.166-.046-.332-.042-.498.012-.478-.192-.883-.415-1.282-.061-.109-.082-.102-.173-.007-.07.073-.144.149-.229.201-.147.09-.281.019-.395-.076-.101-.084-.171-.2-.135-.338.043-.159.19-.178.324-.204.039-.008.081.003.12-.002.046-.009.092-.022.137-.036a.85.85 0 0 0-.065-.096c-.275-.291-.565-.566-.904-.783-.401-.256-.83-.445-1.298-.538-.173-.034-.202-.008-.234.192l.259.094c-.088.223-.214.428-.246.648-.043.293-.07.599.008.895.065.244.19.468.364.652a3.87 3.87 0 0 0 .46.414l.729.515c.051.036.109.061.164.092l.62.349c.071.037.149.056.229.056s.158-.019.229-.056.165-.031.249-.045zm3.849-.007c.063.009.136 0 .186.031.213.13.414.075.611-.029l.495-.283.702-.44c.227-.173.42-.392.639-.576.332-.279.363-.686.479-1.058.006-.019-.012-.045-.017-.068-.067-.341-.109-.688-.266-1.006-.01-.028-.016-.057-.019-.086l.223-.085c0-.051.024-.117 0-.149-.058-.077-.143-.078-.238-.052-.37.1-.731.218-1.067.411-.314.181-.593.404-.857.646-.118.108-.267.202-.308.37l.426.084c.098.028.175.108.159.213-.024.154-.103.277-.259.348-.142.065-.263.052-.377-.045a1.39 1.39 0 0 1-.133-.137c-.105-.119-.108-.117-.195.017-.334.513-.425 1.092-.459 1.685-.017.281-.002.287.276.21zm.651 2.99c.032-.072.056-.112.067-.153.141-.546.366-1.052.704-1.509.209-.282.492-.392.823-.419.08-.007.162.006.24-.007.036-.006.096-.059.093-.081a2.91 2.91 0 0 0-.1-.417c-.01-.032-.074-.061-.115-.064-.233-.018-.464-.022-.652.158-.075.072-.162.129-.243.195-.679.556-.946 1.282-.884 2.143.002.041.033.08.067.154zm-5.168-.017c.085-.104.1-.209.091-.32l-.044-.427c-.037-.195-.069-.395-.139-.578-.204-.528-.615-.884-1.055-1.212a.49.49 0 0 0-.334-.102c-.329.017-.323-.077-.406.314-.055.259-.059.258.195.261h.072c.307.013.577.106.789.344.245.273.404.594.542.926l.29.795h0zm5.359-7.145c-.062.072-.123.123-.162.188l-.342.602a2.89 2.89 0 0 0-.182.44c-.015.048.026.115.041.173.047-.024.102-.038.138-.072.251-.24.526-.438.874-.514.008-.002.016-.004.024-.007.123-.052.138-.092.038-.185a1.45 1.45 0 0 1-.334-.491c-.019-.041-.053-.076-.094-.135h-.001zm-4.833 1.322c-.007-.035-.016-.07-.029-.104l-.569-1.103c-.06-.11-.142-.09-.216.03-.087.143-.164.293-.266.423-.144.186-.155.201.063.261.295.078.561.241.764.47.024.032.054.059.087.081s.077.036.105.024.044-.057.062-.083z" fill="#009d43"/><path d="M40.628 26.258l.126.458.085.312c-.228-.13-.291-.329-.407-.483l-.865-1.17c-.151-.205-.316-.4-.493-.583l-.793-.728a8.41 8.41 0 0 0-.795-.57c-.17-.109-.363-.182-.579-.236.02.046.028.101.06.135.355.377.565.836.776 1.3.276.607.405 1.251.524 1.899.006.056.008.112.004.168l.002.72c.021.677-.104 1.333-.298 1.974a9.05 9.05 0 0 1-1.074 2.323l-.84 1.244c-.201.276-.436.528-.658.788l-.366.41c-.662.641-1.391 1.195-2.219 1.603-.407.2-.846.317-1.285.44-.799.224-1.607.11-2.409.12-.302.004-.613-.1-.907-.195a9.83 9.83 0 0 1-1.036-.413c-.578-.263-1.091-.631-1.564-1.05l-1.003-.96a11.7 11.7 0 0 1-1.329-1.807l-.595-1.025c-.121-.233-.228-.474-.319-.72l-.333-.956a1.58 1.58 0 0 1-.048-.233c-.063-.366-.168-.726-.163-1.103.002-.174-.039-.348-.041-.522a6.87 6.87 0 0 1 .198-1.677 6 6 0 0 1 .45-1.248c.208-.424.42-.857.815-1.235-.102.005-.157-.009-.195.011-.471.252-.935.515-1.326.888l-.917.875c-.322.363-.607.758-.897 1.147l-.479.712c-.043.065-.072.144-.188.137.013-.206.096-.387.168-.567l.323-.717c.018-.042.015-.093.022-.139l.594-1.066c.7-1.132 1.499-2.189 2.471-3.106.7-.659 1.452-1.255 2.3-1.715.81-.44 1.664-.776 2.564-.985.326-.076.651-.185.982-.212.433-.034.862-.192 1.308-.078.109.027.236-.028.355-.029.554-.006 1.095.107 1.635.213.923.182 1.801.506 2.646.912.68.326 1.291.766 1.88 1.237.439.351.84.74 1.231 1.14.56.573 1.047 1.206 1.505 1.861.486.696.906 1.432 1.285 2.19.049.098.078.207.117.311z" fill="#00bf4b"/><g fill="#009d43"><path d="M52.257 30.871l-.222.361c-.309.441-.721.764-1.188 1.022a.57.57 0 0 1-.087.04c-.013.005-.03 0-.072-.003.019-.078.052-.151.052-.225s-.014-.186-.059-.21c-.112-.059-.108-.142-.11-.239 0-.072-.014-.144-.014-.215 0-.06.03-.094.09-.053.109.075.119.004.125-.079.006-.077-.008-.138-.087-.178-.178-.09-.152-.264-.152-.419 0-.028.058-.075.094-.081.146-.024.141-.104.09-.208-.046-.091-.041-.202-.206-.215-.114-.009-.225-.358-.195-.492.04-.173-.052-.27-.219-.233-.153.035-.33-.055-.385-.194-.079-.203-.218-.232-.363-.075-.085.093-.237.089-.33-.021-.078-.092-.167-.144-.287-.15-.175-.009-.187-.001-.222.176-.024.12-.123.172-.252.128l-.271-.092c-.205-.052-.322.05-.304.259.017.199-.024.247-.216.246-.1 0-.212-.048-.286.062-.086.129-.114.293-.051.413.185.351-.015.62-.171.887-.068.117-.076.162.015.255.181.182.168.317-.02.482a.31.31 0 0 0-.078.457 1.61 1.61 0 0 1 .144.373c.026.111-.007.214-.119.288s-.129.217-.024.3c.153.121.134.258.087.406a2.62 2.62 0 0 1-.146.375c-.023.042-.035.088-.037.136a.31.31 0 0 0 .027.138c.118.296.053.508-.187.718-.057.05-.108.149-.101.22.012.119-.029.201-.095.284l-.8 1.014c-.419.526-1.322 1.236-1.961 1.441l.376-.595a2.41 2.41 0 0 0 .148-.246c.015-.032-.005-.081-.01-.122.13-.198.234-.421.396-.589a3.25 3.25 0 0 0 .635-.973l.283-.659a3.2 3.2 0 0 0 .369-1.755c-.021-.282-.059-.555-.224-.814-.231-.36-.412-.757-.45-1.195l-.042-.905c-.008-.315.074-.614.182-.907a3.6 3.6 0 0 1 1.061-1.532 3.42 3.42 0 0 1 1.298-.691 3.5 3.5 0 0 1 1.439-.112c.468.064.904.197 1.305.428a3.57 3.57 0 0 1 1.322 1.32c.204.353.368.727.409 1.138l.05.881c.006.076.029.151.044.226zM16.63 37.174l-.164-.085-.033.022.55.877c-.354-.131-.621-.301-.884-.477-.642-.428-1.144-.99-1.572-1.625a1.8 1.8 0 0 0-.216-.254c-.111-.112-.202-.227-.181-.398.012-.096-.038-.162-.114-.222a.57.57 0 0 1-.178-.714.27.27 0 0 0-.007-.249 3.91 3.91 0 0 1-.148-.376c-.055-.168-.063-.32.096-.454.098-.082.08-.19-.009-.267-.188-.164-.216-.276-.116-.493a1.67 1.67 0 0 1 .126-.203c.107-.162.087-.294-.065-.414-.216-.171-.227-.302-.034-.508.072-.076.072-.129.018-.227a3.46 3.46 0 0 1-.25-.588.32.32 0 0 1 .036-.247c.112-.162.021-.308-.01-.456-.009-.042-.089-.084-.143-.098s-.127.008-.19.005c-.149-.008-.21-.084-.189-.232.029-.213-.101-.331-.31-.273-.076.021-.149.055-.224.083-.171.065-.261.004-.281-.175-.005-.041-.051-.107-.084-.111-.16-.019-.315-.024-.429.137-.089.125-.227.124-.32.013-.04-.048-.058-.129-.139-.093s-.207.082-.224.147c-.039.148-.147.179-.255.224-.036.013-.075.016-.112.008-.208-.048-.296.04-.248.252.042.185-.082.403-.27.485-.131.057-.12.192-.148.301-.022.085.058.096.124.106.08.012.106.063.086.139-.037.139.008.312-.185.382-.036.013-.063.089-.07.139-.013.094.033.118.14.086a.64.64 0 0 1 .087-.009l-.002.362c-.001.037-.017.092-.043.105-.19.092-.151.237-.102.388.009.028.001.062.001.123-.074-.027-.131-.04-.181-.068-.555-.31-.999-.738-1.342-1.272a.13.13 0 0 1-.009-.047c.012-.058.033-.116.032-.174 0-.07-.027-.14-.029-.211a3.73 3.73 0 0 1 .338-1.646c.329-.726.861-1.272 1.552-1.636a3.42 3.42 0 0 1 2.058-.377c.999.124 1.805.563 2.414 1.351.579.75.825 1.599.711 2.553a3.51 3.51 0 0 1-.407 1.315c-.144.259-.269.509-.299.818-.043.437-.022.86.124 1.27l.414 1.019c.207.454.374.938.807 1.248.012.009.017.027.026.04l.476.682z"/></g><g fill="#00bf4b"><path d="M39.814 45.609c.216.076.43.087.646 0a1.06 1.06 0 0 1 .184-.041c.333-.065.625-.206.847-.476l-.764.325c-.195.082-.399.128-.609.098-.115-.017-.238-.051-.334-.114-.156-.103-.245-.259-.18-.454.049-.151.115-.296.178-.442l.216-.48c.087-.2.051-.394-.052-.576l-.318-.5.806.246c.385.143.755.137 1.146.004.811-.276 1.413-.826 1.98-1.431.07-.075.155-.135.225-.21l.463-.517a5.63 5.63 0 0 1 1.523-1.265 5.53 5.53 0 0 1 1.793-.642c.803-.144 1.602-.164 2.392.093a3.97 3.97 0 0 1 1.349.76c.724.616 1.264 1.372 1.666 2.231.22.471.418.949.553 1.451.006.023.024.044.024.067-.002.037-.007.074-.015.11l-.124-.053c-.062-.07-.144-.13-.184-.21a3.86 3.86 0 0 0-.767-1.057l-.631-.586a4.34 4.34 0 0 0-.969-.696c-.563-.308-1.169-.507-1.789-.667-.092-.024-.188-.052-.281-.05-.39.008-.779-.019-1.172.037a3.9 3.9 0 0 0-1.599.6c-.339.221-.651.483-.974.729l-.449.356c-.533.482-1.016 1.017-1.44 1.597-.342.469-.743.876-1.155 1.275-.212.205-.447.384-.749.45l-.623.156a1.68 1.68 0 0 1-1.053-.12l.239.005zM7.26 43.78c-.018.016-.037.03-.058.043-.028.011-.057.021-.087.029-.01-.035-.036-.074-.027-.104l.168-.523c.392-1.13.946-2.165 1.821-3.002.957-.915 2.096-1.313 3.419-1.163.587.067 1.162.178 1.715.4.873.351 1.591.907 2.207 1.606.178.202.334.419.55.592.235.188.418.439.647.637a7.91 7.91 0 0 0 .799.609c.341.227.734.366 1.142.404.244.024.474-.051.702-.129l.749-.23-.288.46c-.128.218-.168.446-.051.685l.207.432c.048.101.103.2.138.305.12.362-.077.651-.461.688-.264.024-.507-.041-.745-.146-.21-.093-.421-.185-.657-.244.08.064.153.143.242.19.154.081.313.161.479.21.24.072.477.176.739.131.069-.012.136-.033.204-.05l.24.014c-.169.072-.349.116-.532.131-.412.032-.809-.055-1.191-.199-.176-.066-.356-.153-.497-.275l-.941-.886a.6.6 0 0 1-.055-.077c-.407-.562-.825-1.116-1.332-1.594l-.824-.766c-.179-.157-.377-.294-.571-.432l-.766-.528c-.435-.243-.91-.377-1.408-.434s-.988-.087-1.472.048l-1.089.356c-.489.168-.921.44-1.317.766-.234.192-.442.415-.671.613-.316.268-.587.584-.804.936l-.324.498zm9.37-6.606l-.476-.684c-.009-.013-.014-.031-.026-.04-.433-.31-.6-.794-.807-1.248l-.414-1.019c-.146-.41-.167-.832-.124-1.27.03-.309.154-.559.299-.818a3.52 3.52 0 0 0 .407-1.314c.114-.953-.132-1.803-.711-2.553-.609-.789-1.416-1.227-2.414-1.351a3.42 3.42 0 0 0-2.058.377c-.691.364-1.223.91-1.552 1.636a3.73 3.73 0 0 0-.338 1.645c.002.071.028.141.029.211 0 .058-.021.116-.032.175-.237-.338-.334-.729-.339-1.128-.015-1.381.553-2.481 1.659-3.308.525-.392 1.128-.61 1.766-.686.964-.116 1.885.079 2.774.471.513.227.863.587 1.108 1.075a8.95 8.95 0 0 1 .583 1.491.17.17 0 0 0 .078.107l.154-.387.21-.585c.011-.028.052-.045.078-.067.017.024.043.048.048.074.151.664.244 1.337.177 2.017a5.22 5.22 0 0 1-.375 1.526c-.255.6-.297 1.219-.182 1.854.078.432.125.87.292 1.281.09.223.192.438.37.611.211.206.438.372.764.37-.065.136-.143.252-.176.379-.051.199-.076.406-.105.61-.019.134-.009.274-.041.404-.067.268-.268.353-.514.23-.04-.021-.074-.058-.111-.087zm35.627-6.303c-.015-.075-.038-.15-.044-.226l-.05-.881c-.041-.411-.205-.785-.409-1.138a3.57 3.57 0 0 0-1.322-1.32c-.401-.231-.838-.364-1.305-.428a3.5 3.5 0 0 0-1.439.112 3.42 3.42 0 0 0-1.298.69c-.494.418-.839.931-1.061 1.532-.108.293-.19.592-.183.907l.042.905c.038.438.219.835.45 1.196.165.259.203.532.225.814a3.2 3.2 0 0 1-.367 1.754c-.111.211-.188.439-.283.659-.157.36-.359.686-.635.974-.162.168-.266.391-.396.589l-.208.199c-.242.203-.539.1-.599-.21a1.25 1.25 0 0 1-.011-.264c.008-.369-.071-.713-.275-1.025a.24.24 0 0 1-.02-.068c.404-.024.701-.232.906-.555a2.16 2.16 0 0 0 .293-.652l.292-1.6c.054-.371-.05-.727-.168-1.08l-.358-1.187a2.86 2.86 0 0 1-.089-.707l.054-1.313c.013-.189.068-.375.11-.56.007-.031.046-.054.072-.081a.48.48 0 0 1 .061.09l.376.988.138-.375c.196-.61.427-1.203.801-1.731.132-.191.31-.347.518-.452.384-.197.785-.357 1.199-.479a4.61 4.61 0 0 1 1.875-.146c.721.091 1.39.354 1.963.825.643.528 1.067 1.197 1.311 1.989.094.307.166.614.173.936a2.47 2.47 0 0 1-.337 1.32z"/></g><g fill="#009d43"><path d="M21.2 48.788c.277.399.444.843.533 1.317.034.168.043.34.027.51l-.126-.157c-.258-.349-.546-.667-.922-.897a1 1 0 0 0-1.202.066c-.137.109-.264.232-.392.351a.65.65 0 0 0-.197.34c-.042.17-.161.324-.262.475-.023.034-.11.024-.188.04.03.035.064.062.08.098.022.048.059.119.04.149a2.59 2.59 0 0 1-.26.34c-.011.012-.079-.014-.114-.035-.068-.041-.12-.06-.115.05.008.166-.105.288-.215.349-.198.11-.215.279-.24.46-.003.024 0 .048-.001.072-.016.271-.123.36-.421.331.067.185-.059.301-.16.413-.054.06-.162.072-.254.107.006.042.047.129.019.178a1.77 1.77 0 0 1-.269.357c-.028.029-.118 0-.18-.005-.078-.005-.14.014-.077.102.081.112.036.197-.042.275-.094.093-.176.218-.341.176-.038-.01-.074-.035-.112-.039-.065-.007-.143-.01-.108.096.054.161-.076.209-.168.277s-.17.133-.296.035c-.09-.07-.127-.031-.14.1-.003.03-.026.075-.05.084-.115.04-.233.127-.355.005-.007-.007-.096.04-.094.054.018.131-.067.2-.16.242-.116.051-.238.085-.364.101-.041.005-.089-.076-.14-.106-.058-.034-.122-.069-.187-.075-.091-.008-.086.072-.09.137-.007.129-.11.136-.203.163s-.166.018-.23-.066c-.098-.127-.102-.123-.224 0a.32.32 0 0 1-.445.022c-.028-.022-.083-.037-.114-.024-.199.078-.385.104-.542-.081-.053-.062-.103-.039-.164.006-.154.115-.403.098-.522-.033-.026-.029-.016-.087-.031-.129-.042-.117-.136-.129-.229-.043-.027.024-.088.043-.117.029a3.65 3.65 0 0 1-.332-.192c-.064-.039-.076-.099-.047-.168.043-.098.016-.17-.079-.216-.015.008-.034.011-.041.021-.124.213-.138.213-.263.002-.036-.062-.077-.121-.122-.177-.061-.072-.083-.144-.052-.242.015-.059.012-.122-.009-.18-.018-.052-.072-.1-.132-.046-.081.072-.14.04-.207-.02-.081-.072-.11-.159-.075-.258.021-.059.074-.107.09-.167a.24.24 0 0 0-.022-.151c-.03-.062-.072-.021-.118-.004-.1.038-.219-.04-.23-.163-.008-.082.024-.17.048-.252.013-.044.056-.078.072-.122.03-.081-.016-.136-.104-.108-.112.036-.163-.011-.21-.098-.1-.185-.08-.306.069-.464.032-.034.037-.094.054-.142-.042-.005-.086-.019-.126-.012-.105.018-.168-.016-.199-.12-.045-.147-.027-.224.078-.293.05-.033.128-.063.14-.108.024-.09.019-.19.008-.284-.008-.077-.065-.101-.143-.076-.101.032-.129-.032-.131-.114-.004-.137.096-.288.231-.292.285-.006.442-.16.577-.389.104-.175.259-.319.391-.477-.124.47-.096.949-.096 1.427-.001.08.005.159.019.238a4.27 4.27 0 0 0 .751 1.695c.255.347.513.692.893.919.172.1.361.167.558.197a2.26 2.26 0 0 0 .687-.006 6.64 6.64 0 0 0 1.3-.306.56.56 0 0 0 .126-.068c.542-.365.988-.824 1.386-1.34l.988-1.167c.072-.085.16-.157.234-.242l.945-1.079c.361-.399.762-.75 1.243-1.002.351-.183.719-.305 1.117-.321.347-.014.683.039 1 .188.046.022.091.04.098-.039zm29.479.897c.159.198.337.385.472.599.096.15.196.243.374.249a.62.62 0 0 1 .165.031c.069.023.127.071.161.135s.042.139.023.209c-.009.027-.072.061-.101.053-.116-.032-.135.031-.153.122-.039.197-.029.232.157.364.091.065.116.147.076.251-.037.096-.083.178-.208.151-.054-.012-.124-.043-.135.037-.005.04.042.096.079.131.148.14.138.45-.031.552-.035.021-.101-.003-.151-.013-.086-.017-.103.038-.088.096.013.052.053.096.081.145.07.123.062.245-.01.363-.036.059-.08.096-.158.054-.034-.019-.103-.034-.118-.017-.046.053-.084.12-.026.194a1.14 1.14 0 0 1 .078.12c.054.089.031.174-.034.242s-.126.14-.246.07c-.086-.05-.197.048-.157.15.104.266-.138.384-.222.565-.044.093-.099.075-.173-.026-.024-.032-.063-.051-.096-.077-.026.045-.086.105-.074.133.084.194-.039.26-.178.325a1.02 1.02 0 0 0-.101.065c-.178.111-.178.111-.256-.117-.059.068-.146.122-.15.181-.012.183-.154.186-.269.222-.107.034-.223.051-.306-.06-.062-.082-.106-.058-.172.004-.172.162-.401.164-.596.018-.18.213-.361.22-.517.002-.079-.108-.122-.065-.181.004-.13.149-.187.17-.337.085-.055-.032-.099-.098-.126-.159-.054-.122-.177-.176-.242-.074-.123.192-.26.164-.43.091-.159-.068-.268-.163-.276-.366-.123.079-.246.11-.379.044-.058-.029-.118-.042-.103-.132.019-.112-.076-.136-.132-.091-.13.104-.218.034-.318-.036s-.208-.11-.159-.277c.032-.111-.083-.102-.144-.077-.088.035-.171.062-.247-.004-.083-.072-.178-.144-.224-.239-.033-.067.007-.169.015-.273-.138.008-.318.052-.402-.142-.056-.13-.226-.234-.051-.452a.27.27 0 0 1-.366-.125c-.064-.094-.179-.176-.109-.296-.115-.035-.248-.037-.309-.104-.072-.079-.105-.213-.11-.326-.008-.204-.042-.367-.24-.483-.116-.068-.221-.184-.189-.358.016-.084-.061-.099-.108-.059-.131.114-.197.036-.262-.07-.008-.014-.02-.024-.029-.038-.155-.216-.155-.216.041-.442-.203.06-.248-.073-.325-.192-.084-.129-.162-.252-.186-.407a.19.19 0 0 0-.053-.104c-.216-.2-.422-.417-.661-.588-.259-.186-.566-.17-.85-.053-.361.149-.651.402-.896.705l-.382.492c0-.136-.011-.221.002-.303.09-.548.261-1.067.556-1.541a.27.27 0 0 1 .052-.048c.072.1.15.015.215-.004.379-.112.754-.162 1.154-.096.457.076.851.279 1.224.523.252.169.483.366.691.588l.965 1.093.649.704.61.735c.317.366.568.789.969 1.083.328.24.635.504 1.054.587.513.102 1.01.254 1.551.186a1.5 1.5 0 0 0 .883-.428c.596-.575 1.031-1.252 1.262-2.055a3.26 3.26 0 0 0 .088-1.465l-.096-.538zm-10.866-4.076h-.238a1.68 1.68 0 0 0 1.053.12c.21-.039.414-.111.624-.156.302-.066.537-.245.749-.45.413-.399.813-.807 1.155-1.275.424-.58.907-1.115 1.44-1.597.141-.128.297-.24.449-.356l.974-.729a3.9 3.9 0 0 1 1.599-.6c.392-.056.781-.029 1.172-.037.093-.002.189.027.281.05.62.16 1.226.36 1.789.667a4.34 4.34 0 0 1 .969.696l.631.586c.314.306.574.664.768 1.057.04.08.12.141.184.21-.136-.033-.253.007-.357.094-.061.052-.115.12-.203.039s-.256-.097-.206-.279l.034-.139c.028-.096-.014-.151-.102-.185s-.159-.027-.192.072c-.041.12-.114.111-.206.061a1 1 0 0 0-.197-.089c-.161-.045-.278-.113-.269-.309.002-.042-.048-.113-.087-.125s-.113.027-.134.065c-.067.12-.15.118-.261.072-.072-.029-.155-.039-.233-.054-.2-.038-.223-.056-.229-.264-.003-.116-.028-.204-.147-.243-.083-.027-.132-.017-.151.085-.04.201-.048.201-.251.145l-.093-.024c-.22-.062-.22-.062-.224-.301-.002-.132-.048-.193-.151-.2-.096-.007-.16.056-.185.18-.04.205-.053.216-.257.192a.92.92 0 0 1-.163-.039c-.227-.072-.239-.1-.17-.323.017-.054.024-.139-.008-.17s-.114-.029-.171-.022c-.079.013-.156.033-.232.059-.162.051-.161.052-.085.206a.29.29 0 0 1 .016.072c-.158.099-.327.084-.49.051s-.226-.159-.196-.323c.021-.108-.036-.207-.126-.203-.096.005-.13.079-.139.165a.32.32 0 0 0 .002.072c.024.199.024.2-.158.216a.92.92 0 0 1-.168.003c-.138-.014-.165-.072-.091-.184.022-.033.067-.066.065-.096-.003-.048-.026-.12-.06-.135-.112-.047-.172.049-.237.117-.053.056-.081.106-.026.187.107.157.1.162-.078.207a1.3 1.3 0 0 1-.164.037c-.093.013-.152-.009-.146-.127.008-.15-.069-.195-.192-.12a.56.56 0 0 0-.124.112c-.094.11-.085.164.033.255.148.112.148.123 0 .222-.013.009-.029.014-.042.024-.277.176-.299.168-.369-.132-.301.195-.323.272-.142.518-.016.026-.035.05-.054.074-.204.208-.235.202-.351-.091-.072.075-.144.136-.2.211s-.112.17.043.223c.021.007.038.105.018.135-.078.115-.172.219-.278.35l-.115-.214c-.091.112-.195.187-.125.345a.18.18 0 0 1-.037.166c-.098.085-.147.271-.343.198-.011-.004-.069.072-.081.12-.043.169-.183.315-.352.317-.081.001-.128.013-.129.093-.002.178-.11.252-.264.29a1.36 1.36 0 0 0-.205.063.2.2 0 0 0-.098.081c-.105.207-.216.26-.451.223-.042-.007-.116.019-.134.052-.077.138-.157.159-.288.064-.037-.027-.122-.002-.18.016-.416.123-.841.197-1.274.184a3.71 3.71 0 0 1-2.158-.753c-.044-.033-.093-.06-.14-.09l.036-.037.742.232.58.115zM7.26 43.78l.325-.499c.217-.353.488-.669.804-.936l.671-.613c.396-.326.828-.598 1.317-.766l1.089-.356c.484-.134.978-.104 1.472-.048a3.74 3.74 0 0 1 1.408.434c.269.151.514.347.766.528l.57.432.824.766c.507.479.925 1.032 1.332 1.594a.52.52 0 0 0 .056.077l.941.886c.141.122.321.209.497.275.382.144.779.231 1.191.199.184-.014.363-.058.533-.131l-.24-.014.579-.118.775-.243c-.043.053-.064.092-.096.117-.486.369-1.03.618-1.632.711-.327.051-.658.091-1 .033-.298-.051-.599-.076-.887-.18-.026-.007-.052-.009-.079-.005s-.052.013-.074.026c-.107.076-.174.05-.233-.055-.046-.082-.087-.14-.204-.068-.109.067-.328-.024-.378-.16-.043-.116-.111-.155-.219-.173-.054-.009-.101-.05-.154-.064-.123-.033-.2-.098-.198-.233.001-.078-.036-.11-.115-.12-.203-.027-.363-.103-.379-.345-.005-.072-.044-.116-.149-.096-.168.03-.37-.216-.323-.386.039-.142-.029-.223-.119-.31-.138.194-.156.195-.292.013a1.45 1.45 0 0 1-.105-.16c-.039-.069-.066-.137.056-.151.075-.008.089-.055.063-.12-.038-.096-.146-.21-.271-.281-.011.01-.027.018-.033.03l-.079.183c-.072-.042-.151-.076-.216-.127s-.046-.113-.001-.186c.103-.17.04-.288-.201-.419-.011.009-.03.017-.032.027-.038.253-.062.266-.273.144l-.147-.082c-.09-.066-.088-.117 0-.184.155-.118.159-.237.007-.351-.038-.029-.082-.05-.129-.06-.079-.014-.139-.004-.127.11.016.16-.012.181-.162.156-.055-.009-.109-.024-.163-.038-.095-.024-.135-.063-.075-.169.083-.147-.019-.328-.186-.345-.034-.003-.089.012-.103.037a.19.19 0 0 0-.013.13c.009.035.048.062.072.093.054.068.032.141-.041.146-.124.01-.251-.011-.375-.03-.016-.003-.044-.087-.029-.108.05-.072.045-.141 0-.2-.034-.043-.112-.101-.139-.088-.065.031-.17.054-.104.19.063.129.001.243-.144.3a.63.63 0 0 1-.55-.026c.113-.245.113-.245-.153-.312a1.37 1.37 0 0 0-.187-.044c-.12-.012-.175.062-.139.18a.49.49 0 0 0 .041.087c.06.113.014.184-.093.225-.081.034-.165.06-.251.078-.216.039-.25.011-.289-.208-.019-.112-.096-.176-.194-.16s-.141.094-.126.216c.028.22.027.22-.185.277-.038.01-.079.015-.117.024-.2.048-.197.048-.255-.151-.01-.035-.07-.09-.088-.084-.069.026-.187.076-.185.111.018.324-.164.416-.445.456-.144.02-.252.057-.344-.099-.051-.086-.175-.057-.174.035.005.273-.182.344-.387.408-.038.012-.075.028-.11.048-.091.048-.16.064-.197-.067-.029-.102-.108-.091-.195-.06-.096.034-.128.083-.088.177a.22.22 0 0 1 .01.072c.004.069.037.164.004.203a.78.78 0 0 1-.255.172c-.028.014-.091-.016-.123-.043-.103-.089-.214-.142-.351-.134z"/></g><g fill="#00bf4b"><path d="M50.679 49.685l.098.537a3.26 3.26 0 0 1-.089 1.464c-.231.803-.666 1.48-1.262 2.055a1.49 1.49 0 0 1-.883.428c-.54.068-1.038-.083-1.551-.186-.419-.084-.726-.346-1.054-.587-.401-.294-.652-.717-.969-1.083l-.61-.735-.649-.704-.965-1.093a4.02 4.02 0 0 0-.691-.588c-.373-.244-.766-.448-1.224-.523-.401-.066-.776-.016-1.154.096-.064.019-.143.103-.215.004.022-.149.03-.302.07-.446.048-.17-.004-.291-.12-.41a2.35 2.35 0 0 1-.272-.33.36.36 0 0 1-.049-.205c.007-.15.152-.246.269-.159.485.361 1.07.342 1.621.453l.776.127c.439.084.795.325 1.12.616.467.417.858.903 1.243 1.394l1.327 1.543c.411.398.862.738 1.412.926.423.147.875.186 1.317.116.403-.062.777-.175 1.114-.402a1.76 1.76 0 0 0 .763-1.172 3.76 3.76 0 0 0-.04-1.611.26.26 0 0 1-.005-.072.44.44 0 0 1 .022-.072c.258.171.486.358.649.617zM21.2 48.788c-.007.079-.051.062-.099.039a2.09 2.09 0 0 0-1-.188c-.398.016-.766.138-1.117.321-.481.251-.883.602-1.243 1.002l-.945 1.079-.234.242-.988 1.167c-.398.516-.844.975-1.386 1.34a.56.56 0 0 1-.127.068 6.59 6.59 0 0 1-1.3.306c-.23.031-.452.046-.687.006-.197-.03-.386-.097-.558-.197-.38-.227-.638-.572-.893-.919a4.27 4.27 0 0 1-.749-1.694c-.014-.078-.021-.158-.019-.238 0-.478-.029-.957.096-1.427a2.02 2.02 0 0 1 .677-.591l-.077.468c-.045.525-.075 1.052.124 1.557a1.86 1.86 0 0 0 1.04 1.068 2.97 2.97 0 0 0 1.451.228c.457-.041.88-.208 1.27-.459.518-.332.943-.767 1.336-1.23l1.492-1.813c.278-.332.597-.624.968-.853.332-.204.688-.332 1.084-.336.094 0 .187-.034.281-.048l.734-.107c.302-.039.593-.142.852-.302.092-.055.189-.139.305-.04.088.076.106.202.015.351-.078.12-.171.23-.278.326a.39.39 0 0 0-.112.167.38.38 0 0 0-.012.201l.094.507z"/></g><g fill="#009d43"><path d="M11.729 35.822c.205.133.427.247.613.403a3.68 3.68 0 0 1 1.106 1.57l-.2-.101a5.4 5.4 0 0 0-1.237-.57c-.264-.082-.522-.136-.817-.048a1.1 1.1 0 0 1-.738-.051c-.105-.046-.184-.08-.259.052-.067.117-.183.14-.314.092a1.17 1.17 0 0 0-.233-.05c-.114-.016-.192.024-.253.133-.11.197-.125.201-.339.147-.112-.028-.183-.004-.239.096a1.33 1.33 0 0 1-.14.192c-.068.082-.138.134-.266.11-.12-.024-.204.033-.261.179-.067.169-.192.334-.43.314a.15.15 0 0 0-.116.082c-.079.232-.3.238-.478.312-.008.002-.016.003-.023.001s-.015-.005-.021-.01c-.136-.172-.215-.079-.326.041-.048.051-.181.03-.275.029-.14-.002-.288.026-.373-.144-.032-.066-.098-.034-.134.021-.057.086-.101.204-.231.166-.148-.043-.321-.052-.389-.238-.048-.131-.138-.19-.295-.187s-.282-.099-.347-.252l-.096-.245c-.027-.056-.062-.134-.11-.148-.144-.042-.182-.168-.256-.268-.105-.142-.066-.288-.02-.434.041-.13.057-.232-.098-.319-.134-.075-.137-.4-.03-.522.031-.036.075-.06.107-.096.058-.065.079-.123.008-.207-.117-.139-.034-.439.141-.482.232-.057.389-.201.553-.357.143-.138.314-.246.472-.366-.023.076-.036.157-.07.227a1.78 1.78 0 0 0-.17.882v.432c-.016.415.12.761.438 1.038.123.107.245.168.409.159s.331-.034.477.011c.285.088.481-.029.703-.18.636-.434 1.242-.918 1.987-1.173.327-.112.649-.207 1-.2h1.343c.076-.001.151-.028.227-.043zm43.514-1.164l.589.482c.109.098.213.181.364.212.187.038.281.168.29.36.002.043-.014.102-.044.127-.115.094-.078.165.008.255.208.218.198.429-.011.652-.03.036-.047.081-.045.128a1.16 1.16 0 0 0 .04.235c.046.179-.046.494-.212.56-.183.072-.211.223-.267.367-.04.105-.069.216-.189.261-.072.027-.148.069-.22.065-.127-.007-.198.048-.24.154-.053.131-.151.195-.283.234-.21.061-.211.069-.345-.118-.055-.077-.096-.093-.167-.015-.044.05-.106.111-.165.117-.15.016-.302.003-.453.002-.101-.198-.216-.184-.382-.058-.069.053-.444-.192-.475-.296-.021-.072-.04-.111-.126-.102-.222.024-.349-.115-.409-.295-.044-.134-.123-.194-.239-.189-.218.008-.342-.108-.429-.281-.063-.123-.155-.163-.275-.107-.147.068-.222-.014-.295-.118-.132-.188-.174-.203-.399-.15-.047.009-.093.021-.139.035-.125.046-.223.009-.288-.101-.055-.094-.114-.111-.216-.07-.301.122-.607.124-.922.039-.11-.029-.239-.019-.353.003-.491.096-.94.305-1.374.547l-.336.197c.059-.536.86-1.577 1.659-1.965.076.014.151.04.227.041l1.248-.002c.597-.028 1.144.148 1.644.43.553.312 1.07.691 1.596 1.05a.56.56 0 0 0 .38.106l.666-.048c.086-.008.181-.013.252-.055.356-.207.556-.52.568-.935v-.959c.002-.071-.008-.143-.028-.211l-.206-.584z"/></g><g fill="#00bf4b"><path d="M26.098 45.462c.07.072-.016.096-.046.129l-.637.742c-.441.62-.812 1.282-.969 2.036a5.49 5.49 0 0 0-.114 1.016l-.008 2.637-.054 1.528c-.026.297-.125.59-.204.881a7.03 7.03 0 0 1-.229.727 1.8 1.8 0 0 1-.248.432c-.168.22-.359.425-.54.637-.082.096-.186.12-.309.149-.373.088-.728-.008-1.087-.06-.072-.011-.141-.061-.211-.094l.409-.002c.382.011.696-.144.976-.388.482-.418.706-.968.843-1.574.082-.364.079-.728.079-1.094l-.072-1.626-.052-2.394c.024-.684.147-1.362.556-1.95.463-.666 1.049-1.2 1.732-1.633l.184-.1zm13.086 10.762c-.078.103-.197.095-.306.108-.312.039-.618.12-.944.05-.176-.038-.319-.092-.429-.226l-.55-.689c-.201-.276-.272-.609-.359-.93l-.239-1.044c-.016-.077-.011-.159-.011-.239l-.008-3.428c-.016-.689-.055-1.382-.317-2.039-.25-.639-.596-1.235-1.027-1.769l-.361-.414c-.017-.02-.007-.062-.01-.094l.713.48c.466.368.873.796 1.188 1.303.264.427.385.9.449 1.396.082.629.048 1.259.042 1.888-.005.477-.062.953-.089 1.43l-.01.6.007 1.218c.053.731.264 1.407.811 1.936.31.3.669.486 1.115.461.111-.008.224-.001.336.001zM11.729 35.822c-.075.015-.151.041-.226.042h-1.344c-.35-.007-.673.088-1 .2-.746.255-1.352.739-1.989 1.171-.222.151-.418.268-.703.18-.146-.045-.318-.018-.477-.011a.56.56 0 0 1-.409-.159c-.317-.277-.454-.622-.437-1.037v-.432a1.78 1.78 0 0 1 .172-.881c.034-.071.048-.151.07-.227l.198-.101-.015.224c-.048.429-.103.859.062 1.276.138.351.537.535.931.462.481-.089.927-.284 1.384-.451l1.489-.522c.244-.078.496-.126.751-.144a2.39 2.39 0 0 1 1.543.411zm43.514-1.164l.209.583a.7.7 0 0 1 .028.211v.959c-.012.415-.211.728-.568.935-.071.041-.166.048-.252.055l-.666.048a.56.56 0 0 1-.38-.106l-1.596-1.05c-.5-.282-1.048-.458-1.644-.43l-1.248.001c-.076 0-.152-.026-.227-.041.47-.304.989-.464 1.543-.417.508.043 1.003.176 1.481.362l1.495.578c.231.084.472.159.714.186.531.059.888-.199.968-.78.048-.353.011-.696-.046-1.041-.007-.041.017-.086.027-.129l.163.077z"/></g><g fill="#009d43"><path d="M53.75 22.855c.305.22.385.552.373.888a1.3 1.3 0 0 1-.308.814c-.193.228-.459.383-.753.439-.548.104-1.154-.118-1.381-.653l.12.061c.034-.201.035-.406.105-.584a1.38 1.38 0 0 1 1.541-.921c.078.01.157.029.235.029.023.001.045-.047.069-.074zM8.512 24.489c-.06.081-.106.179-.181.24-.699.57-1.859.307-2.108-.716-.102-.42-.055-.848.313-1.165.012.079.05.105.132.087.183-.041.371-.055.558-.041.775.055 1.26.819 1.239 1.372-.003.073.031.149.047.223z"/></g><path d="M22.716 53.489c0-.024-.005-.042 0-.048.284-.35.318-.772.357-1.196.053-.576-.091-1.127-.218-1.68-.079-.342-.176-.68-.173-1.038a2.02 2.02 0 0 1 .255-.939c.051-.096.112-.192.247-.177.007.027.018.044.014.056-.183.519-.114 1.037-.014 1.56l.256 1.561c.067.63-.039 1.229-.475 1.728-.067.078-.135.151-.249.173z" fill="#fd0100"/><path d="M37.977 53.387l-.411-.456c-.342-.469-.437-1.01-.382-1.572l.254-2.067a1.91 1.91 0 0 0-.101-.85c-.022-.065-.105-.158-.004-.205.039-.018.148.053.187.109a1.8 1.8 0 0 1 .328.936c.024.372-.053.731-.124 1.091-.087.438-.195.876-.172 1.326.017.271.049.54.094.808.039.254.144.494.303.696.035.045.055.102.082.154l-.054.029z" fill="#fe0100"/><g fill="#009d43"><path d="M41.302 39.893c.395.435.161 1.147-.395 1.344-.527.186-1.165-.159-1.18-.846-.003-.132.082-.267.126-.4-.008.181-.094.361-.01.569.439-.471.962-.509 1.556-.328l-.097-.34zm-20.775.349c.119.297 0 .544-.184.761a.88.88 0 0 1-1.008.205c-.26-.117-.57-.458-.533-.808.011-.107.058-.211.088-.316.005.101.024.181.157.123.044-.02.09-.034.137-.044.412-.08.793-.023 1.123.257l.168.116.05-.223a.35.35 0 0 0 .001-.072z"/></g><g fill="#00bd4a"><path d="M8.512 24.489c-.017-.074-.05-.149-.048-.223.021-.552-.464-1.316-1.239-1.372-.187-.014-.375 0-.557.041-.082.018-.12-.009-.132-.087.38-.406.841-.523 1.37-.373.631.179 1.038.904.851 1.533-.05.169-.161.321-.244.48zm45.238-1.634c-.024.026-.046.074-.069.073-.079 0-.157-.019-.235-.029a1.38 1.38 0 0 0-1.541.921c-.069.178-.071.384-.105.584l-.12-.061c-.488-.757.039-1.852 1.01-1.928.435-.034.77.14 1.06.439z"/></g><g fill="#fd0100"><path d="M14.129 50.496c-.352.38-.737.599-1.187.69-.507.102-.964-.115-1.219-.564a1.25 1.25 0 0 1-.163-.799c.062.056.112.088.144.133.319.432.74.648 1.282.61l.982-.068c.037-.003.073-.001.161-.001zm32.313-.573l.505.032.908-.016c.394-.026.681-.247.916-.547l.191-.248.03.216c.035.66-.583 1.466-1.533 1.186a2.55 2.55 0 0 1-.937-.51c-.022-.019-.034-.048-.079-.113zm2.865-18.149l-.116-.194c-.074-.113-.155-.223-.24-.327-.079-.092-.183-.106-.272-.014-.082.085-.173.173-.218.278-.104.24-.187.492-.27.742-.052.158-.09.32-.168.476l.092-.709.167-1.258c.036-.187.103-.368.197-.533.098-.177.228-.178.37-.031a.73.73 0 0 1 .151.214 5.16 5.16 0 0 1 .364 1.329l-.056.027z"/></g><path d="M12.25 32.964l-.091-.306-.224-.554a.67.67 0 0 0-.105-.16c-.201-.242-.327-.24-.505.014-.09.129-.161.27-.268.453-.008-.091-.018-.132-.015-.172a4.45 4.45 0 0 1 .273-1.163c.049-.118.118-.225.205-.318.11-.122.204-.123.295.016.103.158.204.333.242.514l.204 1.3.058.367-.069.008z" fill="#fe0100"/><g fill="#00bd4a"><path d="M20.527 40.242c.002.024.002.048 0 .072l-.05.223a2 2 0 0 1-.168-.116c-.331-.279-.712-.336-1.123-.257a.65.65 0 0 0-.137.044c-.132.058-.152-.022-.157-.123.113-.336.47-.576.83-.563a.82.82 0 0 1 .762.588c.012.044.029.088.044.132zm20.774-.349l.096.339c-.595-.181-1.117-.144-1.556.328-.083-.208.002-.389.01-.57.204-.485 1.014-.704 1.45-.098z"/></g><path d="M25.579 44.197c-.337.163-.639.375-.869.666l-.631.843c.108-.371.274-.722.492-1.04.178-.259.168-.277-.134-.381l-.41-.133c-.006-.002-.009-.011-.026-.032.073-.066.159-.115.252-.146s.192-.042.289-.032c.345.035.686.12 1.028.185l.01.07z" fill="#fb0200"/><path d="M36.221 45.553l-.398-.584c-.145-.179-.308-.344-.487-.49s-.39-.259-.618-.406c.288-.106.556-.133.809-.213.23-.072.441-.036.655.034.041.013.075.048.112.074-.033.028-.062.066-.1.082l-.446.173c-.138.061-.14.085-.06.211l.439.71c.065.119.09.26.133.391l-.04.017z" fill="#fa0200"/><path d="M15.105 23.15c-.216.227-.524.26-.792.083-.244-.161-.315-.441-.183-.721.011.089.056.09.134.069.104-.028.228-.072.321-.041.24.08.444.218.467.51.003.034.035.067.053.1z" fill="#009d43"/><path d="M46.152 22.478a.54.54 0 0 1-.192.776c-.122.074-.265.104-.406.084s-.271-.088-.367-.192c.117-.014.092-.104.103-.181.032-.234.2-.39.433-.396.111-.003.222.005.331.024s.093-.054.099-.114z" fill="#009c42"/><path d="M40.1 53.247a1.27 1.27 0 0 1 .118.101c.106.115.19.264.318.343.159.098.197.238.224.39.019.104.004.214.004.336l-.091-.065c-.161-.216-.388-.148-.595-.123-.215.026-.216.039-.215-.168 0-.288.082-.57.236-.813z" fill="#00bd4a"/><path d="M19.954 54.402c-.107-.262-.071-.483.104-.662l.471-.493c.208.268.25.579.24.904-.003.099-.053.115-.143.101a3.07 3.07 0 0 0-.403-.039c-.13-.003-.224.063-.27.19z" fill="#00be4a"/><path d="M46.152 22.478c-.006.06.013.133-.098.113s-.22-.027-.331-.024c-.233.007-.401.162-.433.396-.011.076.015.168-.103.181-.213-.232-.246-.439-.109-.691a.62.62 0 0 1 .641-.317c.203.035.324.182.433.341z" fill="#00b848"/><path d="M15.105 23.15c-.018-.033-.051-.065-.053-.1-.024-.292-.226-.43-.467-.51-.093-.031-.216.012-.321.041-.078.021-.122.02-.134-.069.115-.338.55-.485.868-.288a.57.57 0 0 1 .106.926z" fill="#00bc4a"/><path d="M9.066 39.598l-.769.684c-.216.226-.399.486-.615.754.035-.243.733-1.423.977-1.664.047.209.176.288.407.226z" fill="#f70200"/><path d="M52.348 40.099l-.303-.395c-.236-.275-.514-.504-.817-.703-.056-.036-.108-.08-.154-.129.182-.007.343-.032.355-.254.194.117.61.716.972 1.383l-.052.097z" fill="#f50200"/><path d="M18.903 37.759c-.003.233-.148.377-.372.37-.182-.005-.309-.139-.306-.323.003-.194.199-.392.383-.386.171.005.298.151.296.338z" fill="#009e42"/><path d="M42.069 37.819a.29.29 0 0 1-.319.31c-.2 0-.366-.185-.361-.398.005-.157.161-.319.307-.309.212.014.406.23.372.397z" fill="#009f43"/><path d="M48.843 46.493a.28.28 0 0 1-.27.302c-.183.011-.346-.148-.352-.343-.005-.164.108-.295.266-.306.169-.012.35.164.356.347z" fill="#00a543"/><path d="M12.072 46.454c.024.144-.112.324-.327.341-.142.011-.292-.144-.292-.291 0-.158.203-.362.357-.358s.263.135.262.308z" fill="#00a945"/><path d="M18.106 41.148c-.403-.386-.3-1.378.12-1.821-.065.312-.16.61-.179.912s.037.607.059.909z" fill="#e50500"/><path d="M42.083 40.776c.007-.321.044-.632.012-.936-.031-.296-.133-.584-.206-.887.397.394.593 1.334.194 1.823z" fill="#e90400"/><path d="M6.828 43.271a6.95 6.95 0 0 1 .682-2.003c.016.076.039.117.028.139-.279.535-.427 1.114-.567 1.696-.016.065-.05.126-.075.189l-.068-.02z" fill="#691503"/><path d="M52.743 40.618l.4.812c.111.279.181.576.264.868.011.038-.006.085-.034.132-.142-.283-.192-.595-.304-.885l-.37-.881.044-.045z" fill="#6f1403"/><path d="M52.743 40.618l-.044.045-.35-.564.053-.096.341.615z" fill="#b70b01"/><g fill="#9ca"><path d="M10.897 71.593l-.001-.695c-.002-.103.037-.141.14-.14l1.343.011c.361.013.533.174.606.53a1.54 1.54 0 0 1 .033.356.75.75 0 0 1-.762.791l-1.223.008c-.107 0-.138-.043-.136-.142l.001-.719zm0-3.976l-.001-.696c-.002-.102.035-.141.139-.14l1.104.009c.385.015.59.203.642.582a1.91 1.91 0 0 1 .004.454c-.033.308-.24.523-.577.589-.155.031-.318.032-.477.037-.224.006-.448-.004-.673.004-.129.004-.168-.045-.165-.168l.004-.67zm8.893 2.219c-.007-.789.158-1.29.5-1.728.649-.832 1.762-.888 2.495-.13.857.886.806 2.438-.108 3.264-.649.586-1.527.591-2.176.005-.486-.437-.702-.997-.71-1.411zm.971-.284c0 .4.012.487.192.765.299.459.752.576 1.154.141.411-.445.444-1.196.088-1.688s-.889-.477-1.216.029c-.155.242-.25.501-.218.754v-.001zm12.852-.032c-.004.63-.19 1.145-.58 1.582-.694.777-1.767.777-2.466.003a2.36 2.36 0 0 1 .141-3.219c.635-.592 1.567-.586 2.216.023.476.447.68 1.013.689 1.612zm-.968.014c.051-.277-.089-.534-.245-.776-.25-.39-.752-.466-1.051-.157-.495.511-.561 1.424.018 1.938.274.243.591.253.861.006a1.21 1.21 0 0 0 .416-1.011h.001zM14.625 6.002c-.168 0-.336-.004-.505.001-.098.003-.144-.024-.144-.133V3.715c0-.097.027-.149.135-.146l1.198.028c.382.022.636.228.754.596a1.89 1.89 0 0 1 .025 1.108c-.115.41-.479.671-.962.696L14.623 6l.002.002zm.564-1.203h.004v-.096c.003-.091-.022-.153-.133-.15-.1.004-.114.065-.113.144v.214c0 .071.009.128.099.128.084 0 .137-.033.143-.122.002-.04 0-.079 0-.119v.001zm11.738 3.122h-1.726l.836-2.065.052-.002.838 2.066z"/></g><g fill="#001e0f"><path d="M31.967 41.481c-.278.077-.293.072-.277-.209.034-.593.125-1.172.459-1.684.087-.134.09-.136.195-.017a1.37 1.37 0 0 0 .133.137c.114.096.236.11.377.045.156-.072.234-.194.259-.348.017-.105-.061-.185-.159-.213-.135-.038-.276-.055-.426-.084.041-.168.19-.262.308-.37.264-.242.543-.465.857-.646.337-.192.697-.311 1.067-.411.096-.026.18-.024.238.052.024.032.002.098 0 .149-.095.008-.195 0-.283.028-.221.072-.253.189-.137.384.192.324.257.67.107 1.026-.086.203-.186.408-.321.582-.325.417-.721.746-1.263.846l-.544.073c-.303.058-.338.101-.344.405-.002.12-.029.202-.166.212-.028.002-.053.028-.082.043zm.542-1.514c.227.216.398.226.584.048s.246-.407.214-.657c-.007-.054-.056-.102-.086-.153.093.422-.207.876-.712.762zm-7.457-2.093c.032-.2.061-.226.234-.192.469.093.898.282 1.298.538.339.216.629.492.904.783a1.01 1.01 0 0 1 .065.096 1.22 1.22 0 0 1-.137.036c-.039.006-.081-.005-.12.002-.134.026-.281.045-.324.204-.037.138.033.254.135.338.113.095.248.165.395.076.086-.053.159-.128.229-.201.091-.095.112-.101.173.008.223.399.427.804.415 1.282-.004.166.037.332.042.498.005.208-.018.217-.243.147-.248-.122-.251-.121-.277-.413-.011-.122-.072-.194-.187-.214l-.705-.116c-.769-.197-1.27-.709-1.566-1.422-.148-.357-.093-.716.119-1.046.114-.177.078-.296-.12-.362-.101-.035-.218-.028-.328-.041zm2.582 2.092c-.522.068-.716-.146-.715-.759-.173.249-.113.621.134.826.195.162.366.148.581-.067z"/></g><g fill="#007837"><path d="M25.052 37.874c.11.012.227.006.33.041.198.066.233.185.12.362-.212.331-.267.689-.119 1.046.296.713.796 1.224 1.566 1.422.23.059.471.075.706.115.116.02.176.092.187.214.026.291.029.291.277.413-.084.014-.177.009-.251.045s-.149.056-.229.056-.158-.019-.229-.056l-.62-.349-.164-.092-.729-.515a3.93 3.93 0 0 1-.461-.414 1.51 1.51 0 0 1-.364-.652c-.077-.296-.05-.602-.007-.895.032-.219.158-.425.246-.648l-.258-.093zm6.915 3.607c.027-.015.054-.041.082-.043.137-.01.164-.092.166-.213.006-.304.042-.347.345-.405.179-.034.364-.04.543-.074.542-.1.938-.428 1.263-.846.134-.173.235-.379.321-.582.15-.355.085-.702-.107-1.026-.116-.195-.084-.312.137-.384.088-.029.188-.02.283-.028l-.223.085c.003.029.009.058.019.086.157.317.199.665.266 1.006.005.024.024.048.017.068-.115.372-.147.779-.479 1.058l-.639.576c-.218.167-.465.297-.702.44l-.495.283c-.197.104-.397.159-.61.029-.05-.03-.123-.022-.186-.031z"/></g><g fill="#002208"><path d="M32.618 44.471c-.034-.074-.065-.113-.068-.154-.062-.86.204-1.587.884-2.143l.242-.195c.188-.18.419-.176.652-.158.041.003.105.033.115.064a2.91 2.91 0 0 1 .1.417c.004.023-.056.075-.093.081-.078.013-.16 0-.24.007-.331.027-.614.137-.823.419a4.33 4.33 0 0 0-.704 1.509c-.01.042-.034.08-.066.153zm-5.168-.017l-.29-.795c-.138-.332-.297-.653-.542-.926-.213-.237-.481-.331-.789-.344h-.072c-.254-.003-.25-.002-.194-.261.083-.39.077-.297.406-.314a.49.49 0 0 1 .334.101c.439.328.851.684 1.055 1.212.071.184.103.384.139.578.026.14.032.285.044.427.009.111-.006.216-.091.32z"/></g><g fill="#002308"><path d="M32.809 37.309c.042.059.075.094.094.135a1.45 1.45 0 0 0 .334.49c.099.092.084.133-.038.185-.008.003-.016.006-.024.007-.348.076-.623.274-.874.514-.036.034-.091.048-.138.072-.015-.058-.056-.124-.041-.173a2.81 2.81 0 0 1 .182-.44l.342-.602c.04-.065.101-.118.163-.188zm-4.833 1.322c-.017.026-.032.072-.061.084s-.074-.007-.105-.024-.062-.05-.087-.081a1.55 1.55 0 0 0-.764-.47c-.216-.06-.208-.075-.063-.261.102-.131.179-.281.266-.424.072-.12.155-.14.216-.03l.569 1.103a.63.63 0 0 1 .028.104z"/></g><path d="M32.509 39.967c.505.114.805-.34.712-.762.03.051.079.1.086.153.032.25-.027.477-.214.657s-.358.169-.584-.048z" fill="#da0601"/><path d="M27.634 39.966c-.216.216-.386.23-.581.067-.247-.206-.308-.576-.134-.826-.001.613.193.828.715.759z" fill="#d20801"/></g><defs><clipPath id="A"><path fill="#fff" d="M0 0h60v75.814H0z"/></clipPath></defs></svg>