<svg xmlns="http://www.w3.org/2000/svg" width="18" height="18" fill="none" xmlns:v="https://vecta.io/nano"><path d="M17.542 16.358l-5.58-5.579c.866-1.119 1.334-2.488 1.334-3.927 0-1.723-.673-3.339-1.889-4.557S8.572.406 6.852.406s-3.341.672-4.557 1.888S.406 5.129.406 6.852s.672 3.341 1.888 4.557 2.834 1.889 4.557 1.889c1.439 0 2.806-.468 3.925-1.332l5.58 5.577c.016.016.036.029.057.038s.044.013.067.013.046-.005.067-.013.041-.022.057-.038l.937-.935c.016-.016.029-.036.038-.057s.013-.044.013-.067-.005-.046-.013-.067-.022-.041-.038-.057zm-7.288-6.104c-.911.909-2.118 1.409-3.403 1.409s-2.492-.501-3.403-1.409-1.409-2.118-1.409-3.403a4.78 4.78 0 0 1 1.409-3.403c.911-.909 2.118-1.409 3.403-1.409s2.494.498 3.403 1.409 1.409 2.118 1.409 3.403a4.78 4.78 0 0 1-1.409 3.403z" fill="#fff"/></svg>