<svg xmlns="http://www.w3.org/2000/svg" width="16" height="16" fill="none" xmlns:v="https://vecta.io/nano"><path d="M15.436 9.337c.082-.451.126-.912.126-1.374 0-1.023-.2-2.015-.594-2.948-.38-.902-.926-1.712-1.62-2.408-.688-.692-1.504-1.243-2.402-1.622a7.49 7.49 0 0 0-2.94-.596 7.58 7.58 0 0 0-1.43.136C5.927.181 5.206.001 4.473 0A4.44 4.44 0 0 0 1.31 1.313c-.417.415-.747.91-.972 1.454S-.001 3.895 0 4.484a4.5 4.5 0 0 0 .562 2.174c-.074.429-.114.868-.114 1.305 0 1.023.2 2.015.594 2.948.38.902.924 1.713 1.618 2.408s1.502 1.241 2.402 1.622a7.49 7.49 0 0 0 2.94.596 7.51 7.51 0 0 0 1.324-.118c.67.379 1.426.582 2.2.582a4.43 4.43 0 0 0 3.162-1.313c.846-.846 1.31-1.973 1.31-3.17a4.47 4.47 0 0 0-.564-2.18zm-7.401 3.267c-2.684 0-3.884-1.323-3.884-2.314 0-.509.374-.864.89-.864 1.148 0 .852 1.654 2.994 1.654 1.098 0 1.704-.598 1.704-1.209 0-.367-.18-.776-.904-.955l-2.388-.598c-1.922-.483-2.272-1.526-2.272-2.505 0-2.033 1.91-2.797 3.704-2.797 1.652 0 3.6.916 3.6 2.136 0 .523-.452.826-.968.826-.98 0-.8-1.36-2.774-1.36-.98 0-1.522.445-1.522 1.081s.774.838 1.446.993l1.768.393c1.936.433 2.426 1.566 2.426 2.633 0 1.65-1.266 2.886-3.82 2.886z" fill="#fff"/></svg>