<?xml version="1.0" standalone="no"?>
<!DOCTYPE svg PUBLIC "-//W3C//DTD SVG 20010904//EN"
 "http://www.w3.org/TR/2001/REC-SVG-20010904/DTD/svg10.dtd">
<svg version="1.0" xmlns="http://www.w3.org/2000/svg"
 width="1216.000000pt" height="1216.000000pt" viewBox="0 0 1216.000000 1216.000000"
 preserveAspectRatio="xMidYMid meet">
<metadata>
Created by potrace 1.14, written by Peter Selinger 2001-2017
</metadata>
<g transform="translate(0.000000,1216.000000) scale(0.100000,-0.100000)"
fill="#000000" stroke="none">
<path d="M5423 12149 c-53 -10 -85 -33 -109 -79 -11 -19 -21 -37 -24 -40 -3
-3 -14 -23 -25 -45 -10 -22 -26 -48 -34 -57 -8 -10 -11 -18 -7 -18 3 0 -11
-33 -32 -72 -59 -109 -92 -177 -91 -184 0 -4 -3 -10 -8 -13 -4 -3 -33 -55 -63
-116 -30 -60 -62 -118 -70 -129 -8 -10 -14 -20 -12 -22 1 -2 -15 -37 -35 -77
-20 -39 -50 -99 -67 -132 -16 -33 -34 -63 -40 -67 -6 -4 -8 -8 -4 -8 4 0 -1
-15 -11 -32 -10 -18 -53 -103 -97 -188 -43 -85 -82 -156 -86 -158 -5 -2 -8
-12 -8 -22 0 -45 -28 -25 -76 54 -27 44 -50 87 -52 94 -2 6 -8 12 -13 12 -5 0
-9 4 -9 9 0 10 -61 113 -71 121 -19 14 -8 52 34 117 26 39 47 78 47 87 0 8 4
17 9 20 7 4 27 69 32 101 0 2 6 29 13 59 12 50 13 177 3 236 -7 39 -39 134
-50 148 -5 6 -6 12 -3 12 13 0 -77 123 -121 166 -69 68 -204 151 -261 160 -8
1 -21 6 -30 9 -9 4 -28 9 -42 11 -14 1 -36 6 -50 10 -14 4 -235 9 -491 11
-409 3 -471 1 -504 -13 -35 -14 -42 -14 -77 0 -32 12 -93 15 -326 15 -342 0
-351 -2 -402 -93 -18 -31 -36 -59 -41 -62 -5 -3 -9 -14 -9 -25 0 -11 -5 -17
-10 -14 -6 4 -8 11 -5 16 4 5 2 9 -3 9 -6 0 -8 9 -5 20 7 25 -30 101 -58 118
-38 24 -61 26 -324 29 -330 4 -363 -4 -408 -99 -16 -33 -17 -100 -17 -865 0
-798 1 -830 20 -878 10 -27 19 -45 20 -40 0 6 5 2 11 -8 5 -9 24 -25 42 -34
28 -14 69 -17 302 -18 264 0 298 3 353 34 27 15 58 78 65 134 3 21 7 40 9 42
2 3 19 -26 38 -63 42 -83 88 -128 143 -139 23 -5 177 -7 342 -6 165 1 325 2
355 1 30 0 173 -1 316 -1 l262 -1 36 24 c57 39 69 77 76 223 l5 129 40 -69
c21 -37 38 -71 37 -75 -1 -5 2 -8 8 -8 5 0 10 -7 10 -15 0 -8 5 -15 11 -15 5
0 8 -4 4 -9 -3 -5 0 -15 7 -23 7 -7 22 -31 33 -52 28 -54 68 -89 118 -101 27
-7 246 -11 612 -10 501 1 574 3 600 17 43 23 60 45 95 121 20 44 36 67 48 68
23 1 260 1 294 0 23 -1 31 -9 49 -48 44 -98 51 -113 59 -113 5 0 16 -7 24 -16
9 -8 37 -18 63 -22 54 -8 1116 -7 1150 1 45 11 92 52 102 88 12 46 20 102 15
110 -3 5 2 6 10 3 8 -3 20 -20 27 -37 31 -76 70 -126 117 -149 l47 -23 920 0
c742 0 926 3 952 14 26 11 39 11 70 0 57 -19 555 -21 603 -2 90 36 104 75 104
300 1 94 4 174 8 178 5 6 70 -31 103 -58 6 -5 111 -78 235 -163 124 -85 233
-161 243 -169 9 -8 19 -15 22 -15 2 0 39 -23 81 -52 69 -47 82 -52 133 -52 43
-1 63 4 87 21 68 48 64 0 64 955 -1 974 3 921 -76 965 -38 21 -50 22 -321 22
-311 -1 -330 -4 -371 -64 -25 -37 -45 -105 -31 -105 6 0 7 -5 3 -12 -10 -16
-12 -78 -2 -78 4 0 4 -10 0 -22 -4 -13 -7 -48 -5 -78 4 -80 2 -140 -4 -140 -6
0 -186 121 -206 138 -9 8 -26 20 -37 26 -24 13 -323 217 -330 225 -3 3 -13 11
-22 16 -9 6 -48 30 -85 55 -106 71 -151 80 -210 42 -13 -8 -23 -11 -23 -6 0 4
-5 3 -10 -2 -7 -7 -29 -8 -63 -3 -29 5 -294 8 -590 8 -468 0 -543 -2 -580 -16
-40 -15 -46 -15 -76 0 -28 14 -75 16 -317 16 -342 0 -340 1 -402 -93 -23 -35
-46 -75 -51 -87 l-9 -24 -6 25 c-3 14 -8 37 -10 51 -8 47 -34 86 -73 105 -35
17 -64 19 -323 19 -322 0 -339 -3 -378 -73 -23 -42 -23 -41 -24 -805 0 -274
-4 -427 -10 -425 -5 2 -53 89 -107 193 -264 514 -418 815 -522 1016 -50 95
-109 132 -186 118z m-2559 -534 c-1 -52 -4 -102 -8 -110 -3 -8 -2 -15 2 -15 9
0 7 -294 -2 -309 -4 -6 -4 -11 1 -11 6 0 9 -355 4 -412 -2 -15 -19 -8 -24 10
-3 9 -24 49 -46 87 -22 39 -49 86 -59 105 -10 19 -28 51 -39 70 -11 19 -41 74
-66 121 l-46 85 59 104 c33 57 60 107 60 112 0 4 5 8 12 8 6 0 9 3 5 6 -3 3
10 30 29 59 19 30 34 59 34 65 0 5 5 10 10 10 6 0 10 6 10 14 0 8 6 21 13 28
7 7 18 25 24 41 7 15 16 27 20 27 5 0 7 -43 7 -95z m4961 -390 c0 -267 -3
-485 -6 -485 -4 0 -25 35 -48 78 -22 42 -55 102 -72 132 -17 30 -41 73 -52 95
-12 22 -24 42 -27 45 -3 3 -20 34 -38 68 -24 45 -32 71 -28 88 6 24 134 253
147 264 3 3 8 10 10 15 12 31 102 185 107 185 4 0 7 -218 7 -485z m-4115 171
c0 -31 -19 -53 -34 -39 -8 8 -8 58 1 66 17 18 33 5 33 -27z"/>
<path d="M1520 9929 c-103 -9 -136 -25 -168 -84 -15 -27 -17 -147 -18 -1410
-1 -1133 2 -1387 13 -1419 13 -39 57 -86 81 -86 24 0 24 -28 0 -67 -14 -21
-30 -54 -38 -73 -7 -19 -17 -40 -21 -45 -7 -9 -43 -128 -54 -176 -18 -81 -28
-366 -14 -424 3 -16 12 -57 19 -90 8 -33 17 -65 23 -72 5 -7 6 -17 2 -23 -3
-5 -1 -10 4 -10 6 0 10 -3 9 -7 -5 -17 43 -131 77 -181 19 -30 35 -58 35 -63
0 -5 4 -9 8 -9 4 0 15 -12 24 -27 23 -38 122 -139 188 -192 65 -52 81 -71 74
-82 -3 -5 -7 -17 -9 -26 -2 -10 -12 -49 -20 -88 -11 -45 -18 -132 -20 -240 -4
-181 -1 -209 60 -447 15 -56 28 -110 30 -118 2 -8 4 -15 4 -15 2 0 71 -199 75
-216 3 -9 9 -25 14 -35 5 -11 14 -30 20 -44 28 -71 58 -122 89 -150 29 -27 33
-36 28 -63 -11 -64 -15 -263 -6 -312 6 -27 12 -63 15 -80 3 -16 13 -57 21 -90
9 -33 19 -71 22 -85 3 -14 10 -28 15 -31 5 -3 11 -12 12 -20 8 -39 96 -182
150 -244 14 -16 45 -52 68 -80 44 -53 191 -187 211 -194 7 -2 14 -7 17 -11 22
-29 239 -150 269 -150 9 0 21 -4 26 -9 12 -10 97 -34 106 -29 3 2 12 -2 20 -9
38 -31 304 -48 463 -29 35 4 66 -9 66 -28 0 -7 67 -111 115 -177 40 -55 175
-196 231 -240 122 -97 190 -137 320 -191 57 -24 103 -46 101 -49 -1 -4 -36
-33 -77 -66 -86 -69 -116 -98 -184 -176 -51 -60 -66 -69 -66 -39 0 34 -64 147
-107 189 -52 52 -101 83 -173 110 -114 44 -92 37 -155 48 -27 4 -57 10 -65 12
-35 9 -927 9 -958 -1 -34 -10 -92 -58 -92 -76 0 -19 -2 -25 -10 -35 -4 -5 -8
-53 -8 -105 0 -52 -1 -151 -1 -220 0 -69 0 -168 0 -220 0 -52 0 -99 -1 -105
-1 -5 -2 -14 -1 -19 2 -10 3 -426 2 -616 -2 -304 3 -393 24 -430 40 -67 67
-75 275 -77 101 -2 190 -5 196 -7 7 -3 14 -2 17 0 3 3 126 7 273 9 148 1 280
6 294 9 14 4 41 9 60 11 42 4 87 13 115 22 11 4 25 8 31 9 7 1 42 16 80 34 80
39 175 128 212 200 7 14 19 35 26 48 l13 23 28 -38 c35 -47 131 -139 168 -161
15 -9 27 -20 27 -24 0 -4 5 -8 12 -8 6 0 19 -6 27 -14 26 -22 122 -70 164 -81
4 -2 9 -4 12 -5 3 -1 10 -4 15 -5 6 -1 11 -3 13 -5 1 -1 9 -3 17 -5 8 -2 26
-7 40 -10 14 -4 43 -9 65 -12 22 -3 47 -8 55 -12 17 -7 156 -5 210 3 28 5 84
17 140 31 3 1 18 7 33 13 16 7 32 12 37 12 14 0 145 72 148 81 2 5 9 9 16 9 7
0 27 12 44 28 17 15 48 40 68 57 41 33 123 133 173 212 19 29 38 50 43 47 4
-3 24 -29 42 -59 19 -29 43 -63 53 -76 42 -55 164 -169 220 -207 59 -40 177
-99 211 -106 9 -1 24 -6 32 -9 19 -7 108 -25 175 -34 79 -11 163 -7 260 13 17
4 36 7 43 7 6 0 12 4 12 9 0 5 4 7 9 3 10 -6 31 2 130 47 101 46 169 95 267
194 l92 92 21 -29 c11 -15 21 -31 21 -34 0 -4 6 -12 13 -20 6 -7 27 -33 46
-56 61 -78 187 -166 262 -184 13 -3 53 -12 89 -20 36 -9 74 -17 85 -18 12 -2
25 -6 31 -10 27 -16 176 -3 285 25 210 54 356 158 455 325 44 75 66 134 90
245 15 72 20 200 9 248 -3 14 -8 36 -10 50 -21 124 -83 243 -172 325 -46 43
-52 55 -28 55 8 0 15 -5 15 -10 0 -6 21 -24 46 -40 41 -25 54 -29 108 -25 60
3 109 9 194 25 31 5 45 4 48 -4 3 -7 3 -152 2 -324 -2 -172 -1 -312 2 -312 5
0 3 -164 -3 -212 -2 -16 -1 -28 2 -28 3 0 5 -43 4 -95 -1 -52 3 -97 8 -101 5
-3 7 -10 4 -15 -9 -14 32 -66 68 -85 28 -15 66 -18 292 -19 143 -1 279 2 302
7 55 12 96 53 109 109 5 25 9 267 9 556 -1 487 0 513 17 519 10 3 31 3 46 0
135 -28 248 -28 285 0 32 24 54 60 60 101 3 17 8 37 12 42 3 6 2 11 -2 11 -10
0 -10 41 1 58 4 7 4 12 -1 12 -4 0 -8 18 -8 40 0 22 4 40 8 40 4 0 3 9 -3 20
-8 14 -8 26 0 40 8 14 8 20 0 20 -8 0 -8 6 0 20 8 14 8 20 0 20 -7 0 -8 7 -2
17 9 20 8 112 -3 158 -10 48 -50 92 -97 107 -61 20 -1400 19 -1438 -1 -33 -18
-80 -72 -80 -92 0 -30 -12 -28 -70 12 -32 21 -81 49 -109 60 -58 25 -59 23 34
74 58 32 81 49 173 126 86 72 222 218 222 238 0 5 4 11 8 13 5 2 25 28 45 58
20 30 41 60 47 67 5 7 10 16 10 21 0 21 38 43 66 37 60 -12 262 -12 339 0 114
19 125 21 179 40 26 9 57 18 68 20 23 5 210 93 218 103 3 4 25 20 49 36 25 16
52 34 60 40 31 23 247 243 277 281 111 145 153 223 190 360 31 112 40 196 38
330 -2 77 -5 153 -7 168 -3 21 2 35 22 53 14 13 29 24 32 24 7 0 88 185 114
262 9 24 18 50 22 58 7 18 10 28 17 58 3 12 8 28 13 35 4 6 8 17 10 22 1 6 17
71 36 145 19 74 34 147 33 162 -1 16 1 28 4 28 4 0 7 6 7 13 0 6 4 46 8 87 11
110 7 236 -10 320 -11 51 -16 79 -21 109 -3 19 -10 44 -14 57 -8 19 -1 28 53
70 151 117 287 297 348 459 25 68 24 63 34 115 25 122 30 177 29 300 -1 147
-8 200 -47 337 -18 64 -32 98 -75 181 -18 36 -31 66 -30 67 2 1 19 11 39 23
20 12 45 39 55 60 17 35 18 109 18 1406 1 1001 -2 1382 -11 1415 -13 54 -47
86 -106 102 -32 9 -1165 12 -4587 13 -2500 0 -4574 -2 -4610 -5z m4588 -7296
c93 -188 243 -368 414 -495 65 -48 164 -111 178 -113 3 0 16 -7 30 -15 14 -8
27 -15 30 -15 3 0 27 -11 55 -23 82 -38 249 -86 335 -97 14 -2 25 -4 25 -5 0
-4 35 -9 95 -16 30 -3 56 -7 57 -8 2 -1 -12 -18 -30 -37 -41 -44 -97 -115 -97
-123 0 -4 -5 -12 -11 -19 -5 -7 -19 -27 -30 -45 l-20 -34 -30 39 c-89 114
-164 183 -274 249 -91 55 -256 110 -351 118 -16 1 -34 4 -39 7 -15 8 -210 -2
-210 -11 0 0 -16 -3 -36 -5 -97 -10 -296 -100 -383 -173 -61 -52 -163 -158
-181 -189 -11 -18 -23 -33 -27 -33 -4 0 -8 -7 -8 -15 0 -8 -4 -15 -10 -15 -5
0 -10 -6 -10 -14 0 -7 -7 -19 -15 -26 -12 -10 -17 -7 -26 14 -7 14 -16 26 -21
26 -4 0 -8 6 -8 14 0 8 -3 16 -7 18 -5 2 -20 21 -35 43 -53 78 -203 210 -282
249 -15 7 -24 16 -20 18 9 5 173 61 184 63 14 2 177 89 191 101 8 8 20 14 25
14 6 0 19 8 30 18 10 10 42 33 69 52 130 88 298 291 397 478 12 23 23 42 25
42 1 0 11 -17 21 -37z m-1286 -1466 c69 -79 58 -226 -21 -294 -27 -24 -37 -27
-86 -24 -30 1 -66 32 -94 81 -8 14 -15 53 -17 87 -4 96 44 180 111 195 27 6
84 -17 107 -45z m1638 -8 c36 -45 42 -65 40 -138 -2 -100 -57 -169 -137 -176
-27 -2 -88 46 -109 87 -32 61 -20 182 22 225 7 7 14 17 16 23 2 6 21 17 42 24
52 18 87 6 126 -45z"/>
</g>
</svg>
